<?xml version="1.0" encoding="utf-8"?>
<!-- Generator: Adobe Illustrator 15.0.0, SVG Export Plug-In . SVG Version: 6.00 Build 0)  -->
<!DOCTYPE svg PUBLIC "-//W3C//DTD SVG 1.1//EN" "http://www.w3.org/Graphics/SVG/1.1/DTD/svg11.dtd">
<svg version="1.1" id="Layer_1" xmlns="http://www.w3.org/2000/svg" xmlns:xlink="http://www.w3.org/1999/xlink" x="0px" y="0px"
	 width="24.759px" height="22.553px" viewBox="0 0 24.759 22.553" enable-background="new 0 0 24.759 22.553" xml:space="preserve">
<g>
	<path fill="#FFFFFF" d="M5.936,7.135C5.884,7.082,5.813,7.053,5.738,7.053l0,0L1.063,7.066c-0.157,0-0.281,0.127-0.281,0.283
		l0.041,14.957c0.001,0.156,0.127,0.281,0.282,0.281h0.001l4.674-0.014c0.075,0,0.146-0.029,0.199-0.082s0.082-0.127,0.082-0.199
		L6.021,7.334C6.021,7.26,5.99,7.188,5.936,7.135z"/>
	<path fill="#FFFFFF" d="M24.734,13.924c-0.011-4.348-2.389-7.049-6.229-7.049c-2.097,0.004-3.6,0.867-4.379,1.768l-0.003-1.33
		c-0.001-0.158-0.128-0.283-0.283-0.283h-0.002L8.591,7.045c-0.077,0-0.151,0.033-0.205,0.09C8.333,7.189,8.306,7.266,8.31,7.342
		c0.07,1.225,0.041,14.805,0.041,14.943c0,0.074,0.029,0.146,0.082,0.199c0.054,0.053,0.125,0.082,0.2,0.082h0.001l5.248-0.014
		c0.155,0,0.282-0.127,0.282-0.283l-0.023-8.094v-0.164c-0.004-0.369-0.007-0.719,0.092-0.951c0.247-0.619,0.869-1.658,2.272-1.662
		c2.056,0,2.368,1.953,2.37,3.119l0.023,7.74c0,0.074,0.029,0.145,0.081,0.199c0.054,0.051,0.126,0.08,0.2,0.08l0,0l5.298-0.014
		c0.155,0,0.282-0.127,0.281-0.283L24.734,13.924z"/>
	<path fill="#FFFFFF" d="M3.295,0C1.478,0.006,0.162,1.221,0.166,2.887c0.005,1.662,1.295,2.869,3.067,2.869h0.043
		C5.123,5.75,6.408,4.563,6.403,2.861C6.361,1.148,5.115,0,3.295,0z M3.233,5.473L3.233,5.473L3.233,5.473L3.233,5.473z"/>
</g>
</svg>
