<?xml version="1.0" encoding="utf-8"?>
<!-- Generator: Adobe Illustrator 15.0.0, SVG Export Plug-In . SVG Version: 6.00 Build 0)  -->
<!DOCTYPE svg PUBLIC "-//W3C//DTD SVG 1.1//EN" "http://www.w3.org/Graphics/SVG/1.1/DTD/svg11.dtd">
<svg version="1.1" id="Layer_1" xmlns="http://www.w3.org/2000/svg" xmlns:xlink="http://www.w3.org/1999/xlink" x="0px" y="0px"
	 width="51.506px" height="60.355px" viewBox="0 0 51.506 60.355" enable-background="new 0 0 51.506 60.355" xml:space="preserve">
<g id="Your_Icon_1_">
	<g>
		<path fill="#7DD3F4" d="M51.506,8.646l-7.625-8.637c0,0-8.81,7.848-18.128-0.009C16.434,7.857,7.624,0.009,7.624,0.009L0,8.646
			c0,0,6.066,4.068,2.548,13.685C-1.44,33.217-2.548,48.954,25.753,60.355c28.299-11.401,27.191-27.138,23.205-38.024
			C45.438,12.714,51.506,8.646,51.506,8.646z M23.724,40.855c-0.652,0.656-1.512,0.982-2.37,0.982s-1.715-0.326-2.37-0.982
			l-8.799-8.798l4.74-4.742l6.428,6.43l15.227-15.227l4.741,4.741L23.724,40.855z"/>
	</g>
</g>
</svg>
