<?xml version="1.0" encoding="utf-8"?>
<!-- Generator: Adobe Illustrator 15.0.0, SVG Export Plug-In . SVG Version: 6.00 Build 0)  -->
<!DOCTYPE svg PUBLIC "-//W3C//DTD SVG 1.1//EN" "http://www.w3.org/Graphics/SVG/1.1/DTD/svg11.dtd">
<svg version="1.1" id="Layer_1" xmlns="http://www.w3.org/2000/svg" xmlns:xlink="http://www.w3.org/1999/xlink" x="0px" y="0px"
	 width="58.293px" height="51.729px" viewBox="0 0 58.293 51.729" enable-background="new 0 0 58.293 51.729" xml:space="preserve">
<path fill="#50BAEF" d="M52.374,12.604c-2.034,0-3.839,1.04-4.901,2.62L28.008,9.873c0.049-0.398,0.088-0.801,0.088-1.202
	c0-4.792-3.883-8.671-8.66-8.671c-4.787,0-8.67,3.879-8.67,8.671c0,3.797,2.457,7.025,5.874,8.188L14.967,27.33
	c-0.843-0.184-1.713-0.289-2.625-0.289C5.523,27.041,0,32.57,0,39.383c0,6.819,5.523,12.346,12.342,12.346
	c6.811,0,12.342-5.526,12.342-12.346c0-1.768-0.376-3.437-1.046-4.958l23.907-12.53c1.068,1.522,2.84,2.52,4.829,2.52
	c3.276,0,5.919-2.643,5.919-5.905C58.293,15.244,55.65,12.604,52.374,12.604z M22.629,32.583c-1.365-2.063-3.32-3.685-5.631-4.623
	l1.701-10.665c0.244,0.021,0.479,0.029,0.736,0.029c3.641,0,6.753-2.243,8.024-5.425l19.169,5.276
	c-0.088,0.424-0.152,0.872-0.152,1.333c0,0.51,0.074,1.003,0.189,1.479L22.629,32.583z"/>
</svg>
