<?xml version="1.0" encoding="utf-8"?>
<!-- Generator: Adobe Illustrator 16.0.0, SVG Export Plug-In . SVG Version: 6.00 Build 0)  -->
<!DOCTYPE svg PUBLIC "-//W3C//DTD SVG 1.1//EN" "http://www.w3.org/Graphics/SVG/1.1/DTD/svg11.dtd">
<svg version="1.1" id="Layer_1" xmlns="http://www.w3.org/2000/svg" xmlns:xlink="http://www.w3.org/1999/xlink" x="0px" y="0px"
	 width="62.573px" height="79.718px" viewBox="0 0 62.573 79.718" enable-background="new 0 0 62.573 79.718" xml:space="preserve">
<g>
	<g>
		<path fill="#DEFFFF" d="M23.154,20.497h16.174v3.047v2.024v5.059v2.024v5.066l0.254,2.021l0.062,0.062l3.92,5.007l1.326,2.021
			c0,0,10.77,18.413,13.295,23.116c3.565,6.639-1.705,6.941-1.705,6.941L6.665,76.707c0,0-5.522-1.02-2.726-5.647
			c4.736-7.841,18.9-31.194,18.9-31.194l0.316-0.506V20.494L23.154,20.497z"/>
	</g>
	<g>
		<g>
			<defs>
				<path id="SVGID_1_" d="M60.014,73.508c-0.061-0.01-11.697-21.843-11.697-21.843s-4.892,1.378-10.854-0.142
					c-4.557-1.157-7.73-4.639-13.696-4.826c-6.212-0.194-9.495,4.968-9.495,4.968L2.559,73.508l3.418,3.836h50.049L60.014,73.508z"
					/>
			</defs>
			<clipPath id="SVGID_2_">
				<use xlink:href="#SVGID_1_"  overflow="visible"/>
			</clipPath>
			<path clip-path="url(#SVGID_2_)" fill="#7590F7" d="M2.557,77.445h57.457H2.557z"/>
			<rect x="2.916" y="77.445" clip-path="url(#SVGID_2_)" fill="#7590F7" width="57" height="0"/>
			<rect x="2.916" y="76.445" clip-path="url(#SVGID_2_)" fill="#758FF7" width="57" height="1"/>
			<rect x="2.916" y="76.445" clip-path="url(#SVGID_2_)" fill="#748FF7" width="57" height="0"/>
			<rect x="2.916" y="76.445" clip-path="url(#SVGID_2_)" fill="#748EF7" width="57" height="0"/>
			<rect x="2.916" y="76.445" clip-path="url(#SVGID_2_)" fill="#748DF7" width="57" height="0"/>
			<rect x="2.916" y="76.445" clip-path="url(#SVGID_2_)" fill="#738CF7" width="57" height="0"/>
			<rect x="2.916" y="75.445" clip-path="url(#SVGID_2_)" fill="#738CF7" width="57" height="1"/>
			<rect x="2.916" y="75.445" clip-path="url(#SVGID_2_)" fill="#738BF7" width="57" height="0"/>
			<rect x="2.916" y="75.445" clip-path="url(#SVGID_2_)" fill="#728AF7" width="57" height="0"/>
			<rect x="2.916" y="75.445" clip-path="url(#SVGID_2_)" fill="#7289F7" width="57" height="0"/>
			<rect x="2.916" y="75.445" clip-path="url(#SVGID_2_)" fill="#7288F7" width="57" height="0"/>
			<rect x="2.916" y="74.445" clip-path="url(#SVGID_2_)" fill="#7187F7" width="57" height="1"/>
			<rect x="2.916" y="74.445" clip-path="url(#SVGID_2_)" fill="#7187F8" width="57" height="0"/>
			<rect x="2.916" y="74.445" clip-path="url(#SVGID_2_)" fill="#7186F8" width="57" height="0"/>
			<rect x="2.916" y="74.445" clip-path="url(#SVGID_2_)" fill="#7085F8" width="57" height="0"/>
			<rect x="2.916" y="73.445" clip-path="url(#SVGID_2_)" fill="#7084F8" width="57" height="1"/>
			<rect x="2.916" y="73.445" clip-path="url(#SVGID_2_)" fill="#7083F8" width="57" height="0"/>
			<rect x="2.916" y="73.445" clip-path="url(#SVGID_2_)" fill="#6F82F8" width="57" height="0"/>
			<rect x="2.916" y="73.445" clip-path="url(#SVGID_2_)" fill="#6F81F8" width="57" height="0"/>
			<rect x="2.916" y="73.445" clip-path="url(#SVGID_2_)" fill="#6E80F8" width="57" height="0"/>
			<rect x="2.916" y="72.445" clip-path="url(#SVGID_2_)" fill="#6E7FF8" width="57" height="1"/>
			<rect x="2.916" y="72.445" clip-path="url(#SVGID_2_)" fill="#6E7FF8" width="57" height="0"/>
			<rect x="2.916" y="72.445" clip-path="url(#SVGID_2_)" fill="#6D7EF8" width="57" height="0"/>
			<rect x="2.916" y="72.445" clip-path="url(#SVGID_2_)" fill="#6D7DF8" width="57" height="0"/>
			<rect x="2.916" y="72.445" clip-path="url(#SVGID_2_)" fill="#6C7CF8" width="57" height="0"/>
			<rect x="2.916" y="71.445" clip-path="url(#SVGID_2_)" fill="#6C7BF8" width="57" height="1"/>
			<rect x="2.916" y="71.445" clip-path="url(#SVGID_2_)" fill="#6C7AF8" width="57" height="0"/>
			<rect x="2.916" y="71.445" clip-path="url(#SVGID_2_)" fill="#6B79F8" width="57" height="0"/>
			<rect x="2.916" y="71.445" clip-path="url(#SVGID_2_)" fill="#6B78F8" width="57" height="0"/>
			<rect x="2.916" y="71.445" clip-path="url(#SVGID_2_)" fill="#6A77F8" width="57" height="0"/>
			<rect x="2.916" y="70.445" clip-path="url(#SVGID_2_)" fill="#6A76F8" width="57" height="1"/>
			<rect x="2.916" y="70.445" clip-path="url(#SVGID_2_)" fill="#6A75F8" width="57" height="0"/>
			<rect x="2.916" y="70.445" clip-path="url(#SVGID_2_)" fill="#6974F9" width="57" height="0"/>
			<rect x="2.916" y="70.445" clip-path="url(#SVGID_2_)" fill="#6973F9" width="57" height="0"/>
			<rect x="2.916" y="69.445" clip-path="url(#SVGID_2_)" fill="#6872F9" width="57" height="1"/>
			<rect x="2.916" y="69.445" clip-path="url(#SVGID_2_)" fill="#6871F9" width="57" height="0"/>
			<rect x="2.916" y="69.445" clip-path="url(#SVGID_2_)" fill="#6870F9" width="57" height="0"/>
			<rect x="2.916" y="69.445" clip-path="url(#SVGID_2_)" fill="#676FF9" width="57" height="0"/>
			<rect x="2.916" y="69.445" clip-path="url(#SVGID_2_)" fill="#676EF9" width="57" height="0"/>
			<rect x="2.916" y="68.445" clip-path="url(#SVGID_2_)" fill="#666DF9" width="57" height="1"/>
			<rect x="2.916" y="68.445" clip-path="url(#SVGID_2_)" fill="#666DF9" width="57" height="0"/>
			<rect x="2.916" y="68.445" clip-path="url(#SVGID_2_)" fill="#666CF9" width="57" height="0"/>
			<rect x="2.916" y="68.445" clip-path="url(#SVGID_2_)" fill="#656BF9" width="57" height="0"/>
			<rect x="2.916" y="68.445" clip-path="url(#SVGID_2_)" fill="#656AF9" width="57" height="0"/>
			<rect x="2.916" y="67.445" clip-path="url(#SVGID_2_)" fill="#6469F9" width="57" height="1"/>
			<rect x="2.916" y="67.445" clip-path="url(#SVGID_2_)" fill="#6468F9" width="57" height="0"/>
			<rect x="2.916" y="67.445" clip-path="url(#SVGID_2_)" fill="#6367F9" width="57" height="0"/>
			<rect x="2.916" y="67.445" clip-path="url(#SVGID_2_)" fill="#6366F9" width="57" height="0"/>
			<rect x="2.916" y="66.445" clip-path="url(#SVGID_2_)" fill="#6365F9" width="57" height="1"/>
			<rect x="2.916" y="66.445" clip-path="url(#SVGID_2_)" fill="#6264F9" width="57" height="0"/>
			<rect x="2.916" y="66.445" clip-path="url(#SVGID_2_)" fill="#6263FA" width="57" height="0"/>
			<rect x="2.916" y="66.445" clip-path="url(#SVGID_2_)" fill="#6162FA" width="57" height="0"/>
			<rect x="2.916" y="66.445" clip-path="url(#SVGID_2_)" fill="#6161FA" width="57" height="0"/>
			<rect x="2.916" y="65.445" clip-path="url(#SVGID_2_)" fill="#6160FA" width="57" height="1"/>
			<rect x="2.916" y="65.445" clip-path="url(#SVGID_2_)" fill="#605FFA" width="57" height="0"/>
			<rect x="2.916" y="65.445" clip-path="url(#SVGID_2_)" fill="#605EFA" width="57" height="0"/>
			<rect x="2.916" y="65.445" clip-path="url(#SVGID_2_)" fill="#5F5DFA" width="57" height="0"/>
			<rect x="2.916" y="65.445" clip-path="url(#SVGID_2_)" fill="#5F5CFA" width="57" height="0"/>
			<rect x="2.916" y="64.445" clip-path="url(#SVGID_2_)" fill="#5E5BFA" width="57" height="1"/>
			<rect x="2.916" y="64.445" clip-path="url(#SVGID_2_)" fill="#5E5AFA" width="57" height="0"/>
			<rect x="2.916" y="64.445" clip-path="url(#SVGID_2_)" fill="#5E59FA" width="57" height="0"/>
			<rect x="2.916" y="64.445" clip-path="url(#SVGID_2_)" fill="#5D58FA" width="57" height="0"/>
			<rect x="2.916" y="63.445" clip-path="url(#SVGID_2_)" fill="#5D57FA" width="57" height="1"/>
			<rect x="2.916" y="63.445" clip-path="url(#SVGID_2_)" fill="#5C56FA" width="57" height="0"/>
			<rect x="2.916" y="63.445" clip-path="url(#SVGID_2_)" fill="#5C55FA" width="57" height="0"/>
			<rect x="2.916" y="63.445" clip-path="url(#SVGID_2_)" fill="#5B53FA" width="57" height="0"/>
			<rect x="2.916" y="63.445" clip-path="url(#SVGID_2_)" fill="#5B52FA" width="57" height="0"/>
			<rect x="2.916" y="62.445" clip-path="url(#SVGID_2_)" fill="#5A51FA" width="57" height="1"/>
			<rect x="2.916" y="62.445" clip-path="url(#SVGID_2_)" fill="#5A50FB" width="57" height="0"/>
			<rect x="2.916" y="62.445" clip-path="url(#SVGID_2_)" fill="#5A4FFB" width="57" height="0"/>
			<rect x="2.916" y="62.445" clip-path="url(#SVGID_2_)" fill="#594EFB" width="57" height="0"/>
			<rect x="2.916" y="62.445" clip-path="url(#SVGID_2_)" fill="#594DFB" width="57" height="0"/>
			<rect x="2.916" y="61.445" clip-path="url(#SVGID_2_)" fill="#584CFB" width="57" height="1"/>
			<rect x="2.916" y="61.445" clip-path="url(#SVGID_2_)" fill="#584BFB" width="57" height="0"/>
			<rect x="2.916" y="61.445" clip-path="url(#SVGID_2_)" fill="#574AFB" width="57" height="0"/>
			<rect x="2.916" y="61.445" clip-path="url(#SVGID_2_)" fill="#5749FB" width="57" height="0"/>
			<rect x="2.916" y="61.445" clip-path="url(#SVGID_2_)" fill="#5748FB" width="57" height="0"/>
			<rect x="2.916" y="60.445" clip-path="url(#SVGID_2_)" fill="#5647FB" width="57" height="1"/>
			<rect x="2.916" y="60.445" clip-path="url(#SVGID_2_)" fill="#5646FB" width="57" height="0"/>
			<rect x="2.916" y="60.445" clip-path="url(#SVGID_2_)" fill="#5545FB" width="57" height="0"/>
			<rect x="2.916" y="60.445" clip-path="url(#SVGID_2_)" fill="#5544FB" width="57" height="0"/>
			<rect x="2.916" y="59.445" clip-path="url(#SVGID_2_)" fill="#5443FB" width="57" height="1"/>
			<rect x="2.916" y="59.445" clip-path="url(#SVGID_2_)" fill="#5442FB" width="57" height="0"/>
			<rect x="2.916" y="59.445" clip-path="url(#SVGID_2_)" fill="#5341FB" width="57" height="0"/>
			<rect x="2.916" y="59.445" clip-path="url(#SVGID_2_)" fill="#5340FB" width="57" height="0"/>
			<rect x="2.916" y="59.445" clip-path="url(#SVGID_2_)" fill="#533FFC" width="57" height="0"/>
			<rect x="2.916" y="58.445" clip-path="url(#SVGID_2_)" fill="#523EFC" width="57" height="1"/>
			<rect x="2.916" y="58.445" clip-path="url(#SVGID_2_)" fill="#523DFC" width="57" height="0"/>
			<rect x="2.916" y="58.445" clip-path="url(#SVGID_2_)" fill="#513CFC" width="57" height="0"/>
			<rect x="2.916" y="58.445" clip-path="url(#SVGID_2_)" fill="#513BFC" width="57" height="0"/>
			<rect x="2.916" y="58.445" clip-path="url(#SVGID_2_)" fill="#5039FC" width="57" height="0"/>
			<rect x="2.916" y="57.445" clip-path="url(#SVGID_2_)" fill="#5038FC" width="57" height="1"/>
			<rect x="2.916" y="57.445" clip-path="url(#SVGID_2_)" fill="#4F37FC" width="57" height="0"/>
			<rect x="2.916" y="57.445" clip-path="url(#SVGID_2_)" fill="#4F36FC" width="57" height="0"/>
			<rect x="2.916" y="57.445" clip-path="url(#SVGID_2_)" fill="#4F35FC" width="57" height="0"/>
			<rect x="2.916" y="56.445" clip-path="url(#SVGID_2_)" fill="#4E34FC" width="57" height="1"/>
			<rect x="2.916" y="56.445" clip-path="url(#SVGID_2_)" fill="#4E33FC" width="57" height="0"/>
			<rect x="2.916" y="56.445" clip-path="url(#SVGID_2_)" fill="#4D32FC" width="57" height="0"/>
			<rect x="2.916" y="56.445" clip-path="url(#SVGID_2_)" fill="#4D31FC" width="57" height="0"/>
			<rect x="2.916" y="56.445" clip-path="url(#SVGID_2_)" fill="#4C30FC" width="57" height="0"/>
			<rect x="2.916" y="55.445" clip-path="url(#SVGID_2_)" fill="#4C2FFC" width="57" height="1"/>
			<rect x="2.916" y="55.445" clip-path="url(#SVGID_2_)" fill="#4B2EFC" width="57" height="0"/>
			<rect x="2.916" y="55.445" clip-path="url(#SVGID_2_)" fill="#4B2DFD" width="57" height="0"/>
			<rect x="2.916" y="55.445" clip-path="url(#SVGID_2_)" fill="#4A2CFD" width="57" height="0"/>
			<rect x="2.916" y="55.445" clip-path="url(#SVGID_2_)" fill="#4A2BFD" width="57" height="0"/>
			<rect x="2.916" y="54.445" clip-path="url(#SVGID_2_)" fill="#4A29FD" width="57" height="1"/>
			<rect x="2.916" y="54.445" clip-path="url(#SVGID_2_)" fill="#4928FD" width="57" height="0"/>
			<rect x="2.916" y="54.445" clip-path="url(#SVGID_2_)" fill="#4927FD" width="57" height="0"/>
			<rect x="2.916" y="54.445" clip-path="url(#SVGID_2_)" fill="#4826FD" width="57" height="0"/>
			<rect x="2.916" y="53.445" clip-path="url(#SVGID_2_)" fill="#4825FD" width="57" height="1"/>
			<rect x="2.916" y="53.445" clip-path="url(#SVGID_2_)" fill="#4724FD" width="57" height="0"/>
			<rect x="2.916" y="53.445" clip-path="url(#SVGID_2_)" fill="#4723FD" width="57" height="0"/>
			<rect x="2.916" y="53.445" clip-path="url(#SVGID_2_)" fill="#4622FD" width="57" height="0"/>
			<rect x="2.916" y="53.445" clip-path="url(#SVGID_2_)" fill="#4621FD" width="57" height="0"/>
			<rect x="2.916" y="52.445" clip-path="url(#SVGID_2_)" fill="#4520FD" width="57" height="1"/>
			<rect x="2.916" y="52.445" clip-path="url(#SVGID_2_)" fill="#451FFD" width="57" height="0"/>
			<rect x="2.916" y="52.445" clip-path="url(#SVGID_2_)" fill="#451EFD" width="57" height="0"/>
			<rect x="2.916" y="52.445" clip-path="url(#SVGID_2_)" fill="#441DFD" width="57" height="0"/>
			<rect x="2.916" y="52.445" clip-path="url(#SVGID_2_)" fill="#441BFD" width="57" height="0"/>
			<rect x="2.916" y="51.445" clip-path="url(#SVGID_2_)" fill="#431AFE" width="57" height="1"/>
			<rect x="2.916" y="51.445" clip-path="url(#SVGID_2_)" fill="#4319FE" width="57" height="0"/>
			<rect x="2.916" y="51.445" clip-path="url(#SVGID_2_)" fill="#4218FE" width="57" height="0"/>
			<rect x="2.916" y="51.445" clip-path="url(#SVGID_2_)" fill="#4217FE" width="57" height="0"/>
			<rect x="2.916" y="51.445" clip-path="url(#SVGID_2_)" fill="#4116FE" width="57" height="0"/>
			<rect x="2.916" y="50.445" clip-path="url(#SVGID_2_)" fill="#4115FE" width="57" height="1"/>
			<rect x="2.916" y="50.445" clip-path="url(#SVGID_2_)" fill="#4014FE" width="57" height="0"/>
			<rect x="2.916" y="50.445" clip-path="url(#SVGID_2_)" fill="#4013FE" width="57" height="0"/>
			<rect x="2.916" y="50.445" clip-path="url(#SVGID_2_)" fill="#3F12FE" width="57" height="0"/>
			<rect x="2.916" y="49.445" clip-path="url(#SVGID_2_)" fill="#3F11FE" width="57" height="1"/>
			<rect x="2.916" y="49.445" clip-path="url(#SVGID_2_)" fill="#3F0FFE" width="57" height="0"/>
			<rect x="2.916" y="49.445" clip-path="url(#SVGID_2_)" fill="#3E0EFE" width="57" height="0"/>
			<rect x="2.916" y="49.445" clip-path="url(#SVGID_2_)" fill="#3E0DFE" width="57" height="0"/>
			<rect x="2.916" y="49.445" clip-path="url(#SVGID_2_)" fill="#3D0CFE" width="57" height="0"/>
			<rect x="2.916" y="48.445" clip-path="url(#SVGID_2_)" fill="#3D0BFE" width="57" height="1"/>
			<rect x="2.916" y="48.445" clip-path="url(#SVGID_2_)" fill="#3C0AFE" width="57" height="0"/>
			<rect x="2.916" y="48.445" clip-path="url(#SVGID_2_)" fill="#3C09FF" width="57" height="0"/>
			<rect x="2.916" y="48.445" clip-path="url(#SVGID_2_)" fill="#3B08FF" width="57" height="0"/>
			<rect x="2.916" y="48.445" clip-path="url(#SVGID_2_)" fill="#3B07FF" width="57" height="0"/>
			<rect x="2.916" y="47.445" clip-path="url(#SVGID_2_)" fill="#3A06FF" width="57" height="1"/>
			<rect x="2.916" y="47.445" clip-path="url(#SVGID_2_)" fill="#3A04FF" width="57" height="0"/>
			<rect x="2.916" y="47.445" clip-path="url(#SVGID_2_)" fill="#3903FF" width="57" height="0"/>
			<rect x="2.916" y="47.445" clip-path="url(#SVGID_2_)" fill="#3902FF" width="57" height="0"/>
			<rect x="2.916" y="46.445" clip-path="url(#SVGID_2_)" fill="#3801FF" width="57" height="1"/>
			<rect x="2.916" y="46.445" clip-path="url(#SVGID_2_)" fill="#3800FF" width="57" height="0"/>
			<rect x="2.916" y="46.445" clip-path="url(#SVGID_2_)" fill="#3800FF" width="57" height="0"/>
		</g>
	</g>
	<g>
		<path fill="#AAD7FF" d="M18.213,17.673c-1.08,0.1-1.871,1.06-1.771,2.138c0.101,1.08,1.06,1.876,2.14,1.773l0,0h0.976v16.927
			L1.709,68.287C0.9,69.5,0,70.941,0,72.871c0,1.728,0.463,3.695,2.08,5.012v0.062c1.199,0.961,2.839,1.772,4.768,1.772h48.898
			c1.554,0,3.674-0.146,5.074-1.894c0.961-1.204,1.753-2.37,1.753-4.296c0-1.881-0.712-3.343-1.692-5.06l-0.061-0.124L43.033,38.57
			V21.584h0.979c1.078,0,1.954-0.876,1.954-1.955c0-1.081-0.876-1.956-1.954-1.956H18.584c-0.063-0.004-0.123-0.004-0.184,0
			c-0.063-0.004-0.124-0.004-0.186,0H18.213z M23.469,21.584h15.648v2.911h-2.932c-0.061-0.002-0.121-0.002-0.186,0
			c-0.539,0.055-0.936,0.532-0.885,1.074c0.051,0.536,0.53,0.937,1.07,0.884l0,0h2.932v4.866h-2.932
			c-0.061-0.005-0.121-0.005-0.186,0c-0.539,0.052-0.936,0.532-0.885,1.069c0.051,0.539,0.53,0.938,1.07,0.887l0,0h2.932v4.868
			h-2.932c-0.061-0.006-0.121-0.006-0.186,0c-0.539,0.052-0.936,0.53-0.885,1.07c0.051,0.544,0.53,0.94,1.07,0.885l0,0h3.177
			l0.063,0.062l3.791,4.81h-3.121c-0.061-0.006-0.121-0.006-0.184,0c-0.54,0.053-0.937,0.528-0.887,1.068
			c0.053,0.538,0.531,0.938,1.07,0.886l0,0h4.401c0,0,10.419,17.813,12.863,22.366c3.448,6.421-1.651,6.713-1.651,6.713
			L7.521,75.827c0,0-5.343-0.981-2.637-5.462C9.466,62.777,23.168,40.22,23.168,40.22l0.305-0.489V21.584H23.469z"/>
	</g>
	<circle fill="#AAD7FF" cx="24.997" cy="56.997" r="2.677"/>
	<path fill="#FF307A" d="M29.011,34.328c0,0.656-0.532,1.187-1.188,1.187c-0.653,0-1.184-0.53-1.184-1.187
		c0-0.652,0.53-1.185,1.184-1.185C28.479,33.144,29.011,33.676,29.011,34.328z"/>
	<circle fill="#3800FF" cx="20.531" cy="8.472" r="2.899"/>
	<path fill="#AAD7FF" d="M35.643,11.868c0,1.158-0.938,2.096-2.094,2.096s-2.094-0.938-2.094-2.096c0-1.154,0.938-2.092,2.094-2.092
		S35.643,10.714,35.643,11.868z"/>
	<circle fill="#7590F7" cx="31.036" cy="2.096" r="2.093"/>
	<circle fill="#7590F7" cx="32.645" cy="25.177" r="1.393"/>
</g>
</svg>
