<?xml version="1.0" encoding="utf-8"?>
<!-- Generator: Adobe Illustrator 15.0.0, SVG Export Plug-In . SVG Version: 6.00 Build 0)  -->
<!DOCTYPE svg PUBLIC "-//W3C//DTD SVG 1.1//EN" "http://www.w3.org/Graphics/SVG/1.1/DTD/svg11.dtd">
<svg version="1.1" id="Layer_1" xmlns="http://www.w3.org/2000/svg" xmlns:xlink="http://www.w3.org/1999/xlink" x="0px" y="0px"
	 width="59.35px" height="62.869px" viewBox="0 0 59.35 62.869" enable-background="new 0 0 59.35 62.869" xml:space="preserve">
<g>
	<polygon fill="#F2F2F2" points="29.579,0 0,10.41 4.675,49.164 29.611,62.869 54.676,48.978 59.35,10.226 	"/>
	<polygon fill="#50BAEF" points="56.398,12.465 29.51,3.296 29.51,59.595 52.043,47.124 	"/>
	<polygon fill="#7DD3F4" points="3.319,12.631 7.325,47.29 29.51,59.595 29.51,3.295 	"/>
	<path fill="#FFFFFF" d="M36.911,33.267l-7.401,3.461h-7.8l-3.666,9.171l-6.822,0.127L29.51,5.34L36.911,33.267z M36.196,31.524
		l-6.638-13.139l-5.443,12.913h5.395L36.196,31.524z"/>
	<polygon fill="#F2F2F2" points="29.51,5.34 29.559,18.386 35.736,31.308 29.523,31.308 29.51,36.72 38.1,36.728 42.114,46.027 
		48.64,46.148 	"/>
</g>
</svg>
