<?xml version="1.0" encoding="utf-8"?>
<!-- Generator: Adobe Illustrator 15.0.0, SVG Export Plug-In . SVG Version: 6.00 Build 0)  -->
<!DOCTYPE svg PUBLIC "-//W3C//DTD SVG 1.1//EN" "http://www.w3.org/Graphics/SVG/1.1/DTD/svg11.dtd">
<svg version="1.1" id="Layer_1" xmlns="http://www.w3.org/2000/svg" xmlns:xlink="http://www.w3.org/1999/xlink" x="0px" y="0px"
	 width="127.043px" height="119.711px" viewBox="31.361 0 127.043 119.711" enable-background="new 31.361 0 127.043 119.711"
	 xml:space="preserve">
<g>
	<g>
		<path fill-rule="evenodd" clip-rule="evenodd" d="M95.42,0.537c0.389,0,0.777,0,1.166,0c10.488,1.113,16.527,7.104,17.654,17.654
			c0,0.389,0,0.777,0,1.166c-1.113,10.488-7.104,16.527-17.654,17.654c-0.389,0-0.777,0-1.166,0
			c-10.489-1.113-16.528-7.103-17.654-17.654c0-0.389,0-0.777,0-1.166c0.057-0.018,0.084-0.062,0.072-0.147
			c0.234-5.386,2.469-9.325,5.324-12.182C86.045,2.98,90.071,0.858,95.42,0.537z M83.893,8.27c-2.343,2.708-4.256,6.61-3.793,12.037
			c0.398,4.683,2.508,8.004,5.398,10.505c2.801,2.424,6.725,4.296,11.963,3.866c4.677-0.385,8.12-2.489,10.578-5.325
			c2.453-2.831,4.346-6.825,3.939-12.037c-0.374-4.771-2.715-8.174-5.398-10.505c-2.794-2.427-6.703-4.377-12.036-3.939
			C89.969,3.247,86.15,5.659,83.893,8.27z"/>
		<path fill-rule="evenodd" clip-rule="evenodd" d="M102.641,7.687c0.73,0.913,0.1,2.183,0.291,3.282
			c0.085,0.478,0.674,1.045,0.95,1.604c0.662,1.342,0.791,3.218,0.292,5.253c0.896,0.045,1.848,0.032,2.771,0.073
			c1.287,0.057,2.594,0.149,3.501,0.584c-1.624-0.094-3.605-0.616-5.616-0.439c-0.383,0.034-0.879-0.096-0.876,0.439
			c2.171,0.308,4.665,0.295,6.419,1.021c-0.424,0.207-0.904-0.118-1.387-0.219c-1.521-0.317-3.33-0.462-5.104-0.51
			c-0.902,1.893-2.929,2.663-5.473,2.917c1.611,0.78,0.802,4.109,1.021,6.128c0.077,0.706,0.943,0.778,1.094,1.387
			c-1.091,0.177-2.019-0.006-2.333-0.803c-0.525-1.33,0.523-3.811-0.511-4.742c0.067,1.482-0.403,3.6,0.072,4.961
			c0.168,0.479,0.554,0.717,0.584,1.167c-0.772,0.204-1.582-0.271-1.897-0.875c-0.684-1.314,0.184-3.929-0.364-5.399
			c-0.396,0.226-0.22,1.08-0.22,1.678c0,2.174,0.275,4.853-2.115,4.669c-0.074-0.462,0.373-0.587,0.512-1.021
			c0.435-1.372-0.043-3.432,0.146-5.105c-1.133,0.612-0.08,3.133-0.512,4.596c-0.249,0.848-1.331,1.05-2.408,0.876
			c0.179-0.601,0.905-0.653,1.096-1.241c0-0.9,0-1.799,0-2.699c-2.063,0.26-3.201-0.073-3.939-1.239
			c-0.303-0.479-0.389-1.013-0.729-1.46c-0.394-0.514-0.928-0.719-1.239-1.24c1.697-0.731,2.062,1.021,2.989,1.824
			c0.81,0.7,1.799,0.624,2.991,0.219c0.153-0.722,0.527-1.224,0.947-1.678c-2.537-0.257-4.488-1.104-5.471-2.917
			c-2.49-0.037-4.481,0.429-6.492,0.874c0.746-0.518,1.867-0.648,2.918-0.803c1.105-0.162,2.271-0.244,3.429-0.292
			c-0.15-0.858-1.331-0.466-1.97-0.437c-1.463,0.066-3.228,0.166-4.449,0.365c0.975-0.447,2.503-0.519,3.939-0.584
			c0.737-0.034,1.493,0.02,2.188-0.073c-0.746-2.156-0.391-5.331,0.949-6.492c-0.247-1.102-0.218-2.725,0.219-3.575
			c1.758-0.056,2.613,0.791,3.721,1.387c1.704-0.473,4.643-0.547,6.419-0.073C100.103,8.504,100.967,7.691,102.641,7.687z
			 M89.51,17.023c-0.278,3.637,3.185,4.112,6.712,4.085c1.601-0.012,3.655-0.088,4.669-0.729c1.22-0.772,2.005-3.026,1.094-4.741
			c-0.978-1.841-3.05-1.24-5.909-1.24c-1.438,0-3.063-0.18-3.866-0.073C90.758,14.517,89.631,15.455,89.51,17.023z"/>
		<path fill-rule="evenodd" clip-rule="evenodd" d="M92.282,16.148c1.396-0.376,1.367,2.53,0.218,2.553
			C91.39,18.724,91.259,16.423,92.282,16.148z"/>
		<path fill-rule="evenodd" clip-rule="evenodd" d="M99.505,16.148c1.402-0.34,1.296,2.508,0.218,2.553
			C98.607,18.748,98.431,16.407,99.505,16.148z"/>
	</g>
	<g>
		<path fill-rule="evenodd" clip-rule="evenodd" fill="#FFFFFF" d="M114.769,84.243c-6.063,2.917-10.776,8.728-10.519,17.472
			c0.17,5.72,2.531,9.917,5.768,12.978c3.191,3.016,7.847,5.299,13.486,5.09c5.743-0.214,9.717-2.509,12.978-5.769
			c3.01-3.009,5.509-7.529,5.259-13.485c-0.242-5.747-2.752-9.96-5.768-12.978c-2.914-2.913-7.844-5.387-13.57-5.174
			C119.366,82.49,116.965,83.187,114.769,84.243z"/>
		<path fill-rule="evenodd" clip-rule="evenodd" fill="#FF1D25" d="M122.402,82.377c5.727-0.213,10.656,2.261,13.57,5.174
			c3.016,3.018,5.525,7.23,5.768,12.978c0.25,5.956-2.249,10.477-5.259,13.485c-3.261,3.26-7.234,5.555-12.978,5.769
			c-5.64,0.209-10.295-2.074-13.486-5.09c-3.236-3.061-5.598-7.258-5.768-12.978c-0.258-8.744,4.456-14.555,10.519-17.472
			C116.965,83.187,119.366,82.49,122.402,82.377z M122.232,91.707c-1.251,0-2.583-0.101-3.563,0
			c-2.619,0.271-4.766,2.045-5.004,4.326c-0.301,2.899,1.694,4.864,4.751,5.258c-0.142,0.621,0.125,1.348,0.168,1.697
			c-2.164,0.17-3.448,0.6-4.579,1.526c-0.983,0.807-1.802,2.25-1.612,3.646c0.342,2.514,3.805,3.49,6.531,3.478
			c2.099-0.01,3.953-0.753,5.006-1.865c1.408-1.493,1.435-4.598,0.083-6.107c-0.538-0.602-2.551-1.521-2.544-2.544
			c0.004-0.643,1.162-1.183,1.697-1.781c1.284-1.438,1.461-4.176,0.254-5.768c1.057-0.188,1.843-0.645,2.119-1.611
			C124.661,91.513,123.415,91.707,122.232,91.707z M129.017,96.033c-0.423,0.905,0.036,2.692-0.254,3.731
			c-1.166,0.049-2.533-0.103-3.563,0.085c-0.235,0.31-0.281,1.397,0,1.696c1.051,0.194,2.458,0.031,3.647,0.085
			c0.049,1.223-0.104,2.648,0.086,3.732c0.427,0.131,1.269,0.131,1.695,0c0.189-1.084,0.036-2.51,0.085-3.732
			c1.219-0.054,2.655,0.109,3.731-0.085c0.122-0.439,0.179-1.376-0.084-1.696c-1.027-0.245-2.623,0.078-3.647-0.169
			c-0.054-1.163,0.109-2.541-0.085-3.563C130.276,95.875,129.483,95.919,129.017,96.033z"/>
		<path fill-rule="evenodd" clip-rule="evenodd" d="M119.772,99.681c2.933-0.395,1.244-6.894-1.781-6.107
			C115.106,94.322,117.178,100.028,119.772,99.681z M115.445,107.567c0.484,3.059,8.002,3.162,7.211-0.848
			c-0.277-1.402-2.545-2.39-4.326-2.12C116.566,104.866,115.163,105.771,115.445,107.567z"/>
		<path fill-rule="evenodd" clip-rule="evenodd" fill="#FF1D25" d="M117.991,93.573c3.025-0.786,4.714,5.713,1.781,6.107
			C117.178,100.028,115.106,94.322,117.991,93.573z"/>
		<path fill-rule="evenodd" clip-rule="evenodd" fill="#FF1D25" d="M118.33,104.6c1.781-0.27,4.049,0.718,4.326,2.12
			c0.791,4.01-6.727,3.906-7.211,0.848C115.163,105.771,116.566,104.866,118.33,104.6z"/>
	</g>
	<path fill="#1C7699" d="M50.063,32.997c-10.329,0-18.702,8.373-18.702,18.702s8.373,18.702,18.702,18.702
		s18.702-8.373,18.702-18.702S60.393,32.997,50.063,32.997z M45.673,58.146c-0.035,0.036-0.085-0.086-0.136-0.086l-3.165-0.134
		h-0.001c-0.104,0-0.19,0.058-0.19-0.049L42.153,47.82c0-0.104,0.084-0.149,0.19-0.15l3.165,0.031h0.001
		c0.051,0,0.099,0.015,0.136,0.051c0.035,0.035,0.055,0.081,0.055,0.132l0.027,10.128C45.728,58.063,45.708,58.11,45.673,58.146z
		 M43.843,47.355h-0.029c-1.199,0-2.074-1.089-2.077-2.214c-0.003-1.129,0.888-2.087,2.119-2.091c1.231,0,2.075,0.982,2.104,2.141
		C45.963,46.344,45.094,47.355,43.843,47.355z M58.198,58.168l-3.587,0.009c-0.051,0-0.099-0.02-0.134-0.055
		c-0.037-0.036-0.057-0.084-0.057-0.136l-0.016-5.241c-0.002-0.789-0.214-2.112-1.604-2.112c-0.951,0.003-1.702,0.707-1.87,1.127
		c-0.066,0.158-0.391,0.394-0.391,0.644v0.11l0.346,5.481c0,0.105,0.079,0.191-0.026,0.191l-3.473,0.01
		c-0.051,0-0.06-0.021-0.095-0.057c-0.035-0.035-0.034-0.083-0.034-0.134c0-0.093,0.03-9.29-0.017-10.118
		c-0.004-0.052,0.021-0.104,0.056-0.142c0.037-0.038,0.089-0.061,0.142-0.061l3.557-0.01c0.104,0,0.189,0.085,0.189,0.19l0.004,0.9
		c0.527-0.609,1.544-1.192,2.966-1.195c2.601,0,4.211,1.828,4.219,4.772l0.015,5.632C58.389,58.081,58.305,58.167,58.198,58.168z"/>
	<path fill="#368CC1" d="M139.701,32.453c-10.329,0-18.702,8.373-18.702,18.703c0,10.328,8.373,18.701,18.702,18.701
		c10.33,0,18.703-8.373,18.703-18.701C158.404,40.826,150.031,32.453,139.701,32.453z M143.541,47.355c-1,0-1.355,0-1.732,0
		c-0.379,0-1.268,0.908-1.268,1.2s0,1.8,0,1.8s2.871,0,3.179,0c-0.107,1-0.329,3-0.329,3h-2.85v7h-4v-7h-1v-3h1c0,0,0-3.744,0-4.172
		s0.888-1.828,4.578-1.828c0.494,0,1.422,0,2.422,0C143.541,45.355,143.541,47.355,143.541,47.355z"/>
	<path fill-rule="evenodd" clip-rule="evenodd" fill="#007BEA" d="M64.94,82.378c-10.33,0-18.703,8.373-18.703,18.702
		s8.373,18.702,18.703,18.702c10.329,0,18.702-8.373,18.702-18.702S75.27,82.378,64.94,82.378z M60.694,92.355
		c0.033,0,0.067,0,0.1,0c1.352,1,2.884,2.086,4.262,3.35c-2.166,1.17-4.082,2.432-6.243,3.607c-1.353-1.191-2.899-1.951-4.162-3.23
		C56.744,94.842,58.754,94.355,60.694,92.355z M58.813,99.252c2.137,1.199,4.058,2.617,6.243,3.767
		c-1.359,1.283-2.891,2.394-4.262,3.667c-2.075-1.293-4.026-2.714-6.144-3.964C55.929,101.456,57.48,100.465,58.813,99.252z
		 M71.3,107.578c-2.031,1.271-4.332,2.459-6.332,3.766c-2.107-1.195-4.427-2.534-6.427-3.668c0-0.461,0-0.925,0-1.387
		c0,0.396,1.372,0.793,1.97,1.188c1.555-1.087,3.019-2.359,4.454-3.567c1.51,1.133,2.926,2.405,4.406,3.567
		c0.662-0.329,1.277-0.727,1.807-1.188C71.406,106.523,71.236,107.179,71.3,107.578z M69.516,106.686
		c-1.541-1.103-2.874-2.412-4.361-3.568c1.944-1.358,4.128-2.479,6.047-3.865c1.503,1.074,2.968,2.186,4.261,3.47
		C73.476,104.037,71.407,105.274,69.516,106.686z M71.201,99.153c-1.97-1.302-3.994-2.547-6.047-3.767
		c1.321-1.256,2.796-2.358,4.163-3.567c2.214,1.123,4.03,2.643,6.145,3.865C74.185,96.984,72.734,98.111,71.201,99.153z"/>
</g>
</svg>
