<?xml version="1.0" encoding="utf-8"?>
<!-- Generator: Adobe Illustrator 15.0.0, SVG Export Plug-In . SVG Version: 6.00 Build 0)  -->
<!DOCTYPE svg PUBLIC "-//W3C//DTD SVG 1.1//EN" "http://www.w3.org/Graphics/SVG/1.1/DTD/svg11.dtd">
<svg version="1.1" id="Layer_1" xmlns="http://www.w3.org/2000/svg" xmlns:xlink="http://www.w3.org/1999/xlink" x="0px" y="0px"
	 width="110.856px" height="36.903px" viewBox="0 0 110.856 36.903" enable-background="new 0 0 110.856 36.903"
	 xml:space="preserve">
<g>
	<path fill="#50BAEF" d="M0.977,36.059H0V0.844h14.228c7.043,0,10.58,3.011,10.611,9.031c0,4.802-2.483,7.82-7.45,9.057v0.096
		c1.486,0.209,2.681,0.555,3.582,1.037c0.917,0.497,1.598,1.172,2.041,2.022c0.839,1.653,1.242,3.894,1.21,6.72
		c0,1.156,0.071,2.505,0.214,4.047c0.126,1.541,0.332,2.609,0.617,3.203h-1.07c-0.254-0.819-0.428-1.951-0.523-3.396
		c-0.143-1.445-0.214-2.777-0.214-3.998c0.082-2.923-0.434-5.18-1.545-6.77c-1.204-1.541-3.755-2.328-7.652-2.359H0.977V36.059z
		 M0.977,18.575h12.986c2.664,0,4.972-0.709,6.922-2.127s2.941-3.648,2.974-6.693c0.163-5.203-2.969-7.853-9.396-7.949H0.977V18.575
		z"/>
	<path fill="#50BAEF" d="M31.651,35.098h22.27v0.961H30.675V0.844h23.057v0.961h-22.08V17.25h20.772v0.959H31.651V35.098z"/>
	<path fill="#50BAEF" d="M80.814,10.669c-0.158-3.581-1.271-6.11-3.342-7.587c-2.038-1.445-4.677-2.152-7.916-2.12
		c-2.592-0.032-5.001,0.53-7.229,1.687c-1.059,0.579-1.912,1.383-2.56,2.411c-0.711,1.093-1.066,2.427-1.066,4.001
		c0,1.575,0.355,2.82,1.067,3.736c0.681,0.965,1.582,1.744,2.706,2.338c1.139,0.563,2.421,1.005,3.845,1.326
		c1.424,0.369,2.863,0.748,4.319,1.133c1.661,0.369,3.22,0.748,4.676,1.133c1.423,0.434,2.674,0.98,3.75,1.639
		c1.06,0.628,1.914,1.495,2.563,2.604c0.586,1.125,0.879,2.611,0.879,4.46c-0.064,3.278-1.363,5.681-3.899,7.207
		c-2.456,1.511-5.245,2.267-8.367,2.267c-4.025,0-7.29-0.986-9.794-2.957c-2.488-1.971-3.748-5.152-3.779-9.543h0.976
		c0.031,4.144,1.213,7.098,3.542,8.864c2.297,1.815,5.315,2.706,9.056,2.674c2.852,0,5.419-0.675,7.701-2.024
		c2.329-1.35,3.525-3.52,3.589-6.509c0-1.784-0.372-3.206-1.116-4.267c-0.743-1.076-1.717-1.896-2.919-2.459
		c-1.203-0.594-2.501-1.052-3.894-1.373c-1.425-0.338-2.833-0.65-4.226-0.94c-1.424-0.337-2.816-0.698-4.178-1.085
		c-1.361-0.369-2.611-0.867-3.751-1.494c-1.123-0.627-2.01-1.479-2.658-2.555c-0.712-1.061-1.068-2.443-1.068-4.146
		c0-1.783,0.372-3.246,1.115-4.387c0.711-1.189,1.628-2.129,2.751-2.82c1.139-0.691,2.419-1.189,3.843-1.494
		C66.821,0.129,68.196,0,69.557,0c3.463-0.031,6.333,0.754,8.609,2.355c2.198,1.65,3.408,4.421,3.629,8.313H80.814z"/>
	<path fill="#50BAEF" d="M84.867,1.805V0.844h25.989v0.961h-12.51v34.254H97.37V1.805H84.867z"/>
</g>
</svg>
