<?xml version="1.0" encoding="utf-8"?>
<!-- Generator: Adobe Illustrator 15.0.0, SVG Export Plug-In . SVG Version: 6.00 Build 0)  -->
<!DOCTYPE svg PUBLIC "-//W3C//DTD SVG 1.1//EN" "http://www.w3.org/Graphics/SVG/1.1/DTD/svg11.dtd">
<svg version="1.1" id="Layer_1" xmlns="http://www.w3.org/2000/svg" xmlns:xlink="http://www.w3.org/1999/xlink" x="0px" y="0px"
	 width="13.514px" height="27.85px" viewBox="0 0 13.514 27.85" enable-background="new 0 0 13.514 27.85" xml:space="preserve">
<path id="Facebook_1_" fill="#FFFFFF" d="M2.922,5.609c0,0.729,0,3.984,0,3.984H0v4.877h2.922V27.85h5.999V14.471h4.026
	c0,0,0.377-2.338,0.561-4.895c-0.525,0-4.563,0-4.563,0s0-2.836,0-3.334s0.653-1.168,1.301-1.168c0.645,0,2.007,0,3.269,0
	c0-0.664,0-2.957,0-5.074C11.83,0,9.913,0,9.068,0C2.773-0.002,2.922,4.879,2.922,5.609z"/>
</svg>
