<?xml version="1.0" encoding="utf-8"?>
<!-- Generator: Adobe Illustrator 15.0.0, SVG Export Plug-In . SVG Version: 6.00 Build 0)  -->
<!DOCTYPE svg PUBLIC "-//W3C//DTD SVG 1.1//EN" "http://www.w3.org/Graphics/SVG/1.1/DTD/svg11.dtd">
<svg version="1.1" id="Layer_1" xmlns="http://www.w3.org/2000/svg" xmlns:xlink="http://www.w3.org/1999/xlink" x="0px" y="0px"
	 width="26.744px" height="21.902px" viewBox="0 0 26.744 21.902" enable-background="new 0 0 26.744 21.902" xml:space="preserve">
<g>
	<path fill="#FFFFFF" d="M26.744,2.677c-0.971,0.421-2.011,0.707-3.101,0.84c-0.008-0.021-0.016-0.038-0.024-0.058
		c1.154-0.676,2.045-1.75,2.483-3.035c-0.334,0.206-1.946,1.113-3.52,1.406C21.559,0.705,20.081,0,18.438,0
		c-3.472,0-5.608,2.847-5.608,5.607c0,0.215,0.102,1.105,0.12,1.156C8.286,6.663,4.15,4.418,1.488,0.978
		C-0.42,4.449,1.579,7.46,2.948,8.533C2.152,8.52,1.396,8.348,0.708,8.049c0.146,2.671,2.076,4.864,4.62,5.41
		c-1.019,0.286-2.242,0.068-2.714-0.055c0.753,2.233,2.812,3.867,5.27,3.988c-3.762,2.764-7.818,2.48-7.884,2.48
		c2.385,1.428,5.174,2.27,8.156,2.25c10.924-0.07,16.535-9.768,15.869-16.725C25.221,4.84,26.188,3.873,26.744,2.677"/>
</g>
</svg>
