<?xml version="1.0" encoding="UTF-8" standalone="no"?>
<!-- Created with Inkscape (http://www.inkscape.org/) -->

<svg
   version="1.1"
   id="svg2"
   width="4000"
   height="4000"
   viewBox="0 0 4000 4000"
   sodipodi:docname="vecteezy_artificial-intelligence-ai-processor-chip-vector-icon-symbol_6662139.eps"
   xmlns:inkscape="http://www.inkscape.org/namespaces/inkscape"
   xmlns:sodipodi="http://sodipodi.sourceforge.net/DTD/sodipodi-0.dtd"
   xmlns="http://www.w3.org/2000/svg"
   xmlns:svg="http://www.w3.org/2000/svg">
  <defs
     id="defs6" />
  <sodipodi:namedview
     id="namedview4"
     pagecolor="#ffffff"
     bordercolor="#000000"
     borderopacity="0.25"
     inkscape:showpageshadow="2"
     inkscape:pageopacity="0.0"
     inkscape:pagecheckerboard="0"
     inkscape:deskcolor="#d1d1d1" />
  <g
     id="g8"
     inkscape:groupmode="layer"
     inkscape:label="ink_ext_XXXXXX"
     transform="matrix(1.3333333,0,0,-1.3333333,0,4000)">
    <g
       id="g10"
       transform="scale(0.1)">
      <path
         d="M 30000,0 H 0 V 30000 H 30000 V 0"
         style="fill:#ffffff;fill-opacity:1;fill-rule:nonzero;stroke:none"
         id="path12" />
      <path
         d="m 10842.9,20292.6 c -626.1,0 -1135.5,-509.4 -1135.5,-1135.5 V 10843 c 0,-626.2 509.4,-1135.6 1135.5,-1135.6 H 19157 c 626.2,0 1135.6,509.4 1135.6,1135.6 v 8314.1 c 0,626.1 -509.4,1135.5 -1135.6,1135.5 z M 19157,9193.6 h -8314.1 c -909.44,0 -1649.35,739.9 -1649.35,1649.4 v 8314.1 c 0,909.4 739.91,1649.3 1649.35,1649.3 H 19157 c 909.5,0 1649.4,-739.9 1649.4,-1649.3 V 10843 c 0,-909.5 -739.9,-1649.4 -1649.4,-1649.4"
         style="fill:#231f20;fill-opacity:1;fill-rule:nonzero;stroke:none"
         id="path14" />
      <path
         d="m 15256.9,20549.5 h -513.8 v 5261.4 h 513.8 v -5261.4"
         style="fill:#231f20;fill-opacity:1;fill-rule:nonzero;stroke:none"
         id="path16" />
      <path
         d="m 15000,26977.4 c -249.5,0 -452.6,-203.1 -452.6,-452.6 0,-249.5 203.1,-452.5 452.6,-452.5 249.5,0 452.6,203 452.6,452.5 0,249.5 -203.1,452.6 -452.6,452.6 z m 0,-1427.8 c -537.7,0 -975.2,437.5 -975.2,975.2 0,537.7 437.5,975.2 975.2,975.2 537.7,0 975.2,-437.5 975.2,-975.2 0,-537.7 -437.5,-975.2 -975.2,-975.2"
         style="fill:#231f20;fill-opacity:1;fill-rule:nonzero;stroke:none"
         id="path18" />
      <path
         d="m 11952.7,24346.7 c -249.5,0 -452.5,-203.1 -452.5,-452.6 0,-249.5 203,-452.5 452.5,-452.5 249.6,0 452.6,203 452.6,452.5 0,249.5 -203,452.6 -452.6,452.6 z m 0,-1427.8 c -537.7,0 -975.2,437.5 -975.2,975.2 0,537.7 437.5,975.2 975.2,975.2 537.8,0 975.2,-437.5 975.2,-975.2 0,-537.7 -437.4,-975.2 -975.2,-975.2"
         style="fill:#231f20;fill-opacity:1;fill-rule:nonzero;stroke:none"
         id="path20" />
      <path
         d="m 12214,20549.5 h -522.6 v 2630.7 h 522.6 v -2630.7"
         style="fill:#231f20;fill-opacity:1;fill-rule:nonzero;stroke:none"
         id="path22" />
      <path
         d="m 18047.3,24346.7 c -249.6,0 -452.6,-203.1 -452.6,-452.6 0,-249.5 203,-452.5 452.6,-452.5 249.5,0 452.5,203 452.5,452.5 0,249.5 -203,452.6 -452.5,452.6 z m 0,-1427.8 c -537.7,0 -975.2,437.5 -975.2,975.2 0,537.7 437.5,975.2 975.2,975.2 537.7,0 975.2,-437.5 975.2,-975.2 0,-537.7 -437.5,-975.2 -975.2,-975.2"
         style="fill:#231f20;fill-opacity:1;fill-rule:nonzero;stroke:none"
         id="path24" />
      <path
         d="M 18308.6,20549.5 H 17786 v 2630.7 h 522.6 v -2630.7"
         style="fill:#231f20;fill-opacity:1;fill-rule:nonzero;stroke:none"
         id="path26" />
      <path
         d="m 9450.48,14743.1 h -5261.4 v 513.8 h 5261.4 v -513.8"
         style="fill:#231f20;fill-opacity:1;fill-rule:nonzero;stroke:none"
         id="path28" />
      <path
         d="m 3475.2,15452.6 c -249.53,0 -452.55,-203.1 -452.55,-452.6 0,-249.5 203.02,-452.6 452.55,-452.6 249.53,0 452.55,203.1 452.55,452.6 0,249.5 -203.02,452.6 -452.55,452.6 z m 0,-1427.8 c -537.73,0 -975.2,437.5 -975.2,975.2 0,537.7 437.47,975.2 975.2,975.2 537.73,0 975.2,-437.5 975.2,-975.2 0,-537.7 -437.47,-975.2 -975.2,-975.2"
         style="fill:#231f20;fill-opacity:1;fill-rule:nonzero;stroke:none"
         id="path30" />
      <path
         d="m 6105.9,12405.3 c -249.54,0 -452.55,-203 -452.55,-452.6 0,-249.5 203.01,-452.5 452.55,-452.5 249.53,0 452.54,203 452.54,452.5 0,249.6 -203.01,452.6 -452.54,452.6 z m 0,-1427.8 c -537.74,0 -975.21,437.5 -975.21,975.2 0,537.7 437.47,975.2 975.21,975.2 537.73,0 975.2,-437.5 975.2,-975.2 0,-537.7 -437.47,-975.2 -975.2,-975.2"
         style="fill:#231f20;fill-opacity:1;fill-rule:nonzero;stroke:none"
         id="path32" />
      <path
         d="M 9450.48,11691.4 H 6819.77 v 522.6 h 2630.71 v -522.6"
         style="fill:#231f20;fill-opacity:1;fill-rule:nonzero;stroke:none"
         id="path34" />
      <path
         d="m 6105.9,18499.8 c -249.54,0 -452.55,-203 -452.55,-452.5 0,-249.6 203.01,-452.6 452.55,-452.6 249.53,0 452.54,203 452.54,452.6 0,249.5 -203.01,452.5 -452.54,452.5 z m 0,-1427.7 c -537.74,0 -975.21,437.4 -975.21,975.2 0,537.7 437.47,975.2 975.21,975.2 537.73,0 975.2,-437.5 975.2,-975.2 0,-537.8 -437.47,-975.2 -975.2,-975.2"
         style="fill:#231f20;fill-opacity:1;fill-rule:nonzero;stroke:none"
         id="path36" />
      <path
         d="M 9450.48,17786 H 6819.77 v 522.6 H 9450.48 V 17786"
         style="fill:#231f20;fill-opacity:1;fill-rule:nonzero;stroke:none"
         id="path38" />
      <path
         d="m 15256.9,4189.1 h -513.8 v 5261.4 h 513.8 V 4189.1"
         style="fill:#231f20;fill-opacity:1;fill-rule:nonzero;stroke:none"
         id="path40" />
      <path
         d="m 15000,3927.8 c -249.5,0 -452.6,-203.1 -452.6,-452.6 0,-249.5 203.1,-452.6 452.6,-452.6 249.5,0 452.6,203.1 452.6,452.6 0,249.5 -203.1,452.6 -452.6,452.6 z m 0,-1427.8 c -537.7,0 -975.2,437.5 -975.2,975.2 0,537.7 437.5,975.2 975.2,975.2 537.7,0 975.2,-437.5 975.2,-975.2 0,-537.7 -437.5,-975.2 -975.2,-975.2"
         style="fill:#231f20;fill-opacity:1;fill-rule:nonzero;stroke:none"
         id="path42" />
      <path
         d="m 18047.3,6558.5 c -249.6,0 -452.6,-203.1 -452.6,-452.6 0,-249.5 203,-452.6 452.6,-452.6 249.5,0 452.5,203.1 452.5,452.6 0,249.5 -203,452.6 -452.5,452.6 z m 0,-1427.8 c -537.7,0 -975.2,437.5 -975.2,975.2 0,537.7 437.5,975.2 975.2,975.2 537.7,0 975.2,-437.5 975.2,-975.2 0,-537.7 -437.5,-975.2 -975.2,-975.2"
         style="fill:#231f20;fill-opacity:1;fill-rule:nonzero;stroke:none"
         id="path44" />
      <path
         d="M 18308.6,6819.8 H 17786 v 2630.7 h 522.6 V 6819.8"
         style="fill:#231f20;fill-opacity:1;fill-rule:nonzero;stroke:none"
         id="path46" />
      <path
         d="m 11952.7,6558.5 c -249.5,0 -452.5,-203.1 -452.5,-452.6 0,-249.5 203,-452.6 452.5,-452.6 249.6,0 452.6,203.1 452.6,452.6 0,249.5 -203,452.6 -452.6,452.6 z m 0,-1427.8 c -537.7,0 -975.2,437.5 -975.2,975.2 0,537.7 437.5,975.2 975.2,975.2 537.8,0 975.2,-437.5 975.2,-975.2 0,-537.7 -437.4,-975.2 -975.2,-975.2"
         style="fill:#231f20;fill-opacity:1;fill-rule:nonzero;stroke:none"
         id="path48" />
      <path
         d="m 12214,6819.8 h -522.6 V 9450.5 H 12214 V 6819.8"
         style="fill:#231f20;fill-opacity:1;fill-rule:nonzero;stroke:none"
         id="path50" />
      <path
         d="m 25810.9,14743.1 h -5261.4 v 513.8 h 5261.4 v -513.8"
         style="fill:#231f20;fill-opacity:1;fill-rule:nonzero;stroke:none"
         id="path52" />
      <path
         d="m 26524.8,15452.6 c -249.5,0 -452.6,-203.1 -452.6,-452.6 0,-249.5 203.1,-452.6 452.6,-452.6 249.5,0 452.6,203.1 452.6,452.6 0,249.5 -203.1,452.6 -452.6,452.6 z m 0,-1427.8 c -537.7,0 -975.2,437.5 -975.2,975.2 0,537.7 437.5,975.2 975.2,975.2 537.7,0 975.2,-437.5 975.2,-975.2 0,-537.7 -437.5,-975.2 -975.2,-975.2"
         style="fill:#231f20;fill-opacity:1;fill-rule:nonzero;stroke:none"
         id="path54" />
      <path
         d="m 23894.1,18499.8 c -249.5,0 -452.6,-203 -452.6,-452.5 0,-249.6 203.1,-452.6 452.6,-452.6 249.5,0 452.6,203 452.6,452.6 0,249.5 -203.1,452.5 -452.6,452.5 z m 0,-1427.7 c -537.7,0 -975.2,437.4 -975.2,975.2 0,537.7 437.5,975.2 975.2,975.2 537.7,0 975.2,-437.5 975.2,-975.2 0,-537.8 -437.5,-975.2 -975.2,-975.2"
         style="fill:#231f20;fill-opacity:1;fill-rule:nonzero;stroke:none"
         id="path56" />
      <path
         d="m 23180.2,17786 h -2630.7 v 522.6 h 2630.7 V 17786"
         style="fill:#231f20;fill-opacity:1;fill-rule:nonzero;stroke:none"
         id="path58" />
      <path
         d="m 23894.1,12405.3 c -249.5,0 -452.6,-203 -452.6,-452.6 0,-249.5 203.1,-452.5 452.6,-452.5 249.5,0 452.6,203 452.6,452.5 0,249.6 -203.1,452.6 -452.6,452.6 z m 0,-1427.8 c -537.7,0 -975.2,437.5 -975.2,975.2 0,537.7 437.5,975.2 975.2,975.2 537.7,0 975.2,-437.5 975.2,-975.2 0,-537.7 -437.5,-975.2 -975.2,-975.2"
         style="fill:#231f20;fill-opacity:1;fill-rule:nonzero;stroke:none"
         id="path60" />
      <path
         d="m 23180.2,11691.4 h -2630.7 v 522.6 h 2630.7 v -522.6"
         style="fill:#231f20;fill-opacity:1;fill-rule:nonzero;stroke:none"
         id="path62" />
      <path
         d="m 15048.7,14536.8 -536.3,1576.5 c -121.9,357.5 -203.1,682.5 -284.4,999.5 h -16.3 c -81.2,-325.1 -170.6,-658.3 -276.2,-991.4 l -536.4,-1584.6 z m -1795.8,-552.5 -568.9,-1722.8 h -731.3 l 1860.9,5477 h 853.2 l 1869,-5477 H 15780 l -585,1722.8 h -1942.1"
         style="fill:#000000;fill-opacity:1;fill-rule:nonzero;stroke:none"
         id="path64" />
      <path
         d="m 18047.3,17738.5 v -5477 h -707 v 5477 h 707"
         style="fill:#000000;fill-opacity:1;fill-rule:nonzero;stroke:none"
         id="path66" />
    </g>
  </g>
</svg>
