<?xml version="1.0" encoding="iso-8859-1"?>
<!-- Generator: Adobe Illustrator 19.0.0, SVG Export Plug-In . SVG Version: 6.00 Build 0)  -->
<svg version="1.1" id="Layer_1" xmlns="http://www.w3.org/2000/svg" xmlns:xlink="http://www.w3.org/1999/xlink" x="0px" y="0px"
	 viewBox="0 0 503.607 503.607" style="enable-background:new 0 0 503.607 503.607;" xml:space="preserve">
<g transform="translate(1 1)"  stroke="none" stroke-width="1" fill="#333">
	<g>
		<g>
			<path d="M485.82,158.475h-33.574c-9.233,0-16.787,7.554-16.787,16.787v8.393H66.148v-8.393c0-9.233-7.554-16.787-16.787-16.787
				H15.787C6.554,158.475-1,166.03-1,175.262v151.082c0,9.233,7.554,16.787,16.787,16.787h33.574
				c9.233,0,16.787-7.554,16.787-16.787v-8.393h369.311v8.393c0,9.233,7.554,16.787,16.787,16.787h33.574
				c9.233,0,16.787-7.554,16.787-16.787V175.262C502.607,166.03,495.052,158.475,485.82,158.475z M49.361,326.344H15.787V175.262
				h33.574v16.787v117.508V326.344z M66.148,301.164v-67.148h25.18c5.036,0,8.393-3.357,8.393-8.393
				c0-5.036-3.357-8.393-8.393-8.393h-25.18v-16.787h369.311v16.787h-33.574c-5.036,0-8.393,3.357-8.393,8.393
				c0,5.036,3.357,8.393,8.393,8.393h33.574v67.148H66.148z M485.82,326.344h-33.574v-16.787V192.049v-16.787h33.574V326.344z"/>
			<path d="M225.623,217.229h-67.148c-5.036,0-8.393,3.357-8.393,8.393c0,5.036,3.357,8.393,8.393,8.393h67.148
				c5.036,0,8.393-3.357,8.393-8.393C234.016,220.587,230.659,217.229,225.623,217.229z"/>
			<path d="M124.902,217.229c-5.036,0-8.393,3.357-8.393,8.393c0,5.036,3.357,8.393,8.393,8.393s8.393-3.357,8.393-8.393
				C133.295,220.587,129.938,217.229,124.902,217.229z"/>
			<path d="M351.525,217.229H267.59c-5.036,0-8.393,3.357-8.393,8.393c0,5.036,3.357,8.393,8.393,8.393h83.934
				c5.036,0,8.393-3.357,8.393-8.393C359.918,220.587,356.561,217.229,351.525,217.229z"/>
		</g>
	</g>
</g>
<g>
</g>
<g>
</g>
<g>
</g>
<g>
</g>
<g>
</g>
<g>
</g>
<g>
</g>
<g>
</g>
<g>
</g>
<g>
</g>
<g>
</g>
<g>
</g>
<g>
</g>
<g>
</g>
<g>
</g>
</svg>
