<?xml version="1.0" encoding="utf-8"?>
<!-- Generator: Adobe Illustrator 15.0.0, SVG Export Plug-In . SVG Version: 6.00 Build 0)  -->
<!DOCTYPE svg PUBLIC "-//W3C//DTD SVG 1.1//EN" "http://www.w3.org/Graphics/SVG/1.1/DTD/svg11.dtd">
<svg version="1.1" id="Layer_1" xmlns="http://www.w3.org/2000/svg" xmlns:xlink="http://www.w3.org/1999/xlink" x="0px" y="0px"
	 width="1364px" height="579px" viewBox="0 0 1364 579" enable-background="new 0 0 1364 579" xml:space="preserve">
<rect x="-1" y="-1" fill="#7DD3F4" width="1366" height="582"/>
<g opacity="0.8">
	<defs>
		<rect id="SVGID_1_" opacity="0.8" width="1364" height="579"/>
	</defs>
	<clipPath id="SVGID_2_">
		<use xlink:href="#SVGID_1_"  overflow="visible"/>
	</clipPath>
	<circle opacity="0.67" clip-path="url(#SVGID_2_)" fill="#FFFFFF" cx="-154" cy="44.5" r="4.155"/>
	<line clip-path="url(#SVGID_2_)" fill="none" x1="537" y1="29" x2="537" y2="32"/>
	<line clip-path="url(#SVGID_2_)" fill="none" x1="1246" y1="29" x2="1246" y2="32"/>
	<ellipse opacity="0.29" clip-path="url(#SVGID_2_)" fill="#FFFFFF" cx="157.452" cy="322.074" rx="3.575" ry="3.535"/>
	<ellipse opacity="0.29" clip-path="url(#SVGID_2_)" fill="#FFFFFF" cx="31.822" cy="436.939" rx="3.576" ry="3.537"/>
	<ellipse opacity="0.29" clip-path="url(#SVGID_2_)" fill="#FFFFFF" cx="-16.365" cy="322.926" rx="3.576" ry="3.536"/>
	<ellipse opacity="0.29" clip-path="url(#SVGID_2_)" fill="#FFFFFF" cx="31.822" cy="208.062" rx="3.576" ry="3.536"/>
	<polygon opacity="0.29" clip-path="url(#SVGID_2_)" fill="none" stroke="#FFFFFF" stroke-miterlimit="10" points="-16.406,322.688 
		31.822,207.83 158.85,322.688 31.822,437.547 	"/>
	<ellipse opacity="0.29" clip-path="url(#SVGID_2_)" fill="#FFFFFF" cx="206.5" cy="436.939" rx="3.576" ry="3.537"/>
	<ellipse opacity="0.29" clip-path="url(#SVGID_2_)" fill="#FFFFFF" cx="80.87" cy="551.803" rx="3.576" ry="3.535"/>
	<ellipse opacity="0.29" clip-path="url(#SVGID_2_)" fill="#FFFFFF" cx="32.683" cy="437.789" rx="3.575" ry="3.535"/>
	<ellipse opacity="0.29" clip-path="url(#SVGID_2_)" fill="#FFFFFF" cx="80.87" cy="322.926" rx="3.576" ry="3.536"/>
	<polygon opacity="0.29" clip-path="url(#SVGID_2_)" fill="none" stroke="#FFFFFF" stroke-miterlimit="10" points="32.64,437.553 
		80.87,322.694 207.896,437.553 80.87,552.41 	"/>
	<ellipse opacity="0.29" clip-path="url(#SVGID_2_)" fill="#FFFFFF" cx="205.638" cy="207.211" rx="3.576" ry="3.536"/>
	<ellipse opacity="0.29" clip-path="url(#SVGID_2_)" fill="#FFFFFF" cx="80.009" cy="322.074" rx="3.576" ry="3.535"/>
	<ellipse opacity="0.29" clip-path="url(#SVGID_2_)" fill="#FFFFFF" cx="80.009" cy="93.197" rx="3.576" ry="3.535"/>
	<polygon opacity="0.29" clip-path="url(#SVGID_2_)" fill="none" stroke="#FFFFFF" stroke-miterlimit="10" points="31.78,207.824 
		80.009,92.967 207.037,207.824 80.009,322.683 	"/>
	<ellipse opacity="0.29" clip-path="url(#SVGID_2_)" fill="#FFFFFF" cx="334.301" cy="322.074" rx="3.575" ry="3.535"/>
	<ellipse opacity="0.29" clip-path="url(#SVGID_2_)" fill="#FFFFFF" cx="208.671" cy="436.939" rx="3.576" ry="3.537"/>
	<ellipse opacity="0.29" clip-path="url(#SVGID_2_)" fill="#FFFFFF" cx="160.484" cy="322.926" rx="3.576" ry="3.536"/>
	<ellipse opacity="0.29" clip-path="url(#SVGID_2_)" fill="#FFFFFF" cx="208.671" cy="208.062" rx="3.576" ry="3.536"/>
	<polygon opacity="0.29" clip-path="url(#SVGID_2_)" fill="none" stroke="#FFFFFF" stroke-miterlimit="10" points="160.441,322.688 
		208.671,207.83 335.697,322.688 208.671,437.547 	"/>
	<ellipse opacity="0.29" clip-path="url(#SVGID_2_)" fill="#FFFFFF" cx="257.718" cy="551.803" rx="3.575" ry="3.535"/>
	<ellipse opacity="0.29" clip-path="url(#SVGID_2_)" fill="#FFFFFF" cx="257.718" cy="322.926" rx="3.575" ry="3.536"/>
	<ellipse opacity="0.29" clip-path="url(#SVGID_2_)" fill="#FFFFFF" cx="382.487" cy="207.211" rx="3.575" ry="3.536"/>
	<ellipse opacity="0.29" clip-path="url(#SVGID_2_)" fill="#FFFFFF" cx="256.858" cy="322.074" rx="3.576" ry="3.535"/>
	<ellipse opacity="0.29" clip-path="url(#SVGID_2_)" fill="#FFFFFF" cx="256.858" cy="93.197" rx="3.576" ry="3.535"/>
	<polygon opacity="0.29" clip-path="url(#SVGID_2_)" fill="none" stroke="#FFFFFF" stroke-miterlimit="10" points="208.629,207.824 
		256.858,92.967 383.885,207.824 256.858,322.683 	"/>
	<ellipse opacity="0.29" clip-path="url(#SVGID_2_)" fill="#FFFFFF" cx="506.209" cy="322.074" rx="3.576" ry="3.535"/>
	<ellipse opacity="0.29" clip-path="url(#SVGID_2_)" fill="#FFFFFF" cx="332.394" cy="322.926" rx="3.575" ry="3.536"/>
	<ellipse opacity="0.29" clip-path="url(#SVGID_2_)" fill="#FFFFFF" cx="380.58" cy="208.062" rx="3.576" ry="3.536"/>
	<ellipse opacity="0.29" clip-path="url(#SVGID_2_)" fill="#FFFFFF" cx="555.257" cy="436.939" rx="3.575" ry="3.537"/>
	<ellipse opacity="0.29" clip-path="url(#SVGID_2_)" fill="#FFFFFF" cx="429.627" cy="551.803" rx="3.575" ry="3.535"/>
	<ellipse opacity="0.29" clip-path="url(#SVGID_2_)" fill="#FFFFFF" cx="429.627" cy="322.926" rx="3.575" ry="3.536"/>
	<ellipse opacity="0.29" clip-path="url(#SVGID_2_)" fill="#FFFFFF" cx="554.396" cy="207.211" rx="3.577" ry="3.536"/>
	<ellipse opacity="0.29" clip-path="url(#SVGID_2_)" fill="#FFFFFF" cx="428.767" cy="322.074" rx="3.576" ry="3.535"/>
	<ellipse opacity="0.29" clip-path="url(#SVGID_2_)" fill="#FFFFFF" cx="428.767" cy="93.197" rx="3.576" ry="3.535"/>
	<polygon opacity="0.29" clip-path="url(#SVGID_2_)" fill="none" stroke="#FFFFFF" stroke-miterlimit="10" points="380.537,207.824 
		428.767,92.967 555.794,207.824 428.767,322.683 	"/>
	<ellipse opacity="0.29" clip-path="url(#SVGID_2_)" fill="#FFFFFF" cx="683.057" cy="322.074" rx="3.576" ry="3.535"/>
	<path opacity="0.29" clip-path="url(#SVGID_2_)" fill="#FFFFFF" d="M553.852,436.939c0-1.953,1.604-3.537,3.575-3.537
		c1.976,0,3.576,1.584,3.576,3.537c0,1.952-1.601,3.535-3.576,3.535C555.455,440.475,553.852,438.892,553.852,436.939z"/>
	<ellipse opacity="0.29" clip-path="url(#SVGID_2_)" fill="#FFFFFF" cx="509.242" cy="322.926" rx="3.576" ry="3.536"/>
	<path opacity="0.29" clip-path="url(#SVGID_2_)" fill="#FFFFFF" d="M553.852,208.062c0-1.952,1.604-3.536,3.575-3.536
		c1.976,0,3.576,1.583,3.576,3.536c0,1.952-1.601,3.536-3.576,3.536C555.455,211.598,553.852,210.013,553.852,208.062z"/>
	<polygon opacity="0.29" clip-path="url(#SVGID_2_)" fill="none" stroke="#FFFFFF" stroke-miterlimit="10" points="509.199,322.688 
		557.427,207.83 684.456,322.688 557.427,437.547 	"/>
	<ellipse opacity="0.29" clip-path="url(#SVGID_2_)" fill="#FFFFFF" cx="732.106" cy="436.939" rx="3.576" ry="3.537"/>
	<ellipse opacity="0.29" clip-path="url(#SVGID_2_)" fill="#FFFFFF" cx="606.477" cy="551.803" rx="3.575" ry="3.535"/>
	<ellipse opacity="0.29" clip-path="url(#SVGID_2_)" fill="#FFFFFF" cx="606.477" cy="322.926" rx="3.575" ry="3.536"/>
	<polygon opacity="0.29" clip-path="url(#SVGID_2_)" fill="none" stroke="#FFFFFF" stroke-miterlimit="10" points="558.247,437.553 
		606.477,322.694 733.502,437.553 606.477,552.41 	"/>
	<ellipse opacity="0.29" clip-path="url(#SVGID_2_)" fill="#FFFFFF" cx="731.245" cy="207.211" rx="3.575" ry="3.536"/>
	<ellipse opacity="0.29" clip-path="url(#SVGID_2_)" fill="#FFFFFF" cx="605.616" cy="322.074" rx="3.576" ry="3.535"/>
	<ellipse opacity="0.29" clip-path="url(#SVGID_2_)" fill="#FFFFFF" cx="605.616" cy="93.197" rx="3.576" ry="3.535"/>
	<polygon opacity="0.29" clip-path="url(#SVGID_2_)" fill="none" stroke="#FFFFFF" stroke-miterlimit="10" points="557.387,207.824 
		605.616,92.967 732.643,207.824 605.616,322.683 	"/>
	<ellipse opacity="0.29" clip-path="url(#SVGID_2_)" fill="#FFFFFF" cx="857.931" cy="322.074" rx="3.575" ry="3.535"/>
	<ellipse opacity="0.29" clip-path="url(#SVGID_2_)" fill="#FFFFFF" cx="732.302" cy="436.939" rx="3.575" ry="3.537"/>
	<ellipse opacity="0.29" clip-path="url(#SVGID_2_)" fill="#FFFFFF" cx="684.116" cy="322.926" rx="3.576" ry="3.536"/>
	<ellipse opacity="0.29" clip-path="url(#SVGID_2_)" fill="#FFFFFF" cx="732.302" cy="208.062" rx="3.575" ry="3.536"/>
	<ellipse opacity="0.29" clip-path="url(#SVGID_2_)" fill="#FFFFFF" cx="906.979" cy="436.939" rx="3.576" ry="3.537"/>
	<ellipse opacity="0.29" clip-path="url(#SVGID_2_)" fill="#FFFFFF" cx="781.348" cy="551.803" rx="3.576" ry="3.535"/>
	<ellipse opacity="0.29" clip-path="url(#SVGID_2_)" fill="#FFFFFF" cx="733.162" cy="437.789" rx="3.576" ry="3.535"/>
	<ellipse opacity="0.29" clip-path="url(#SVGID_2_)" fill="#FFFFFF" cx="781.348" cy="322.926" rx="3.576" ry="3.536"/>
	<polygon opacity="0.29" clip-path="url(#SVGID_2_)" fill="none" stroke="#FFFFFF" stroke-miterlimit="10" points="733.119,437.553 
		781.35,322.694 908.377,437.553 781.35,552.41 	"/>
	<ellipse opacity="0.29" clip-path="url(#SVGID_2_)" fill="#FFFFFF" cx="906.117" cy="207.211" rx="3.576" ry="3.536"/>
	<ellipse opacity="0.29" clip-path="url(#SVGID_2_)" fill="#FFFFFF" cx="780.488" cy="322.074" rx="3.576" ry="3.535"/>
	<ellipse opacity="0.29" clip-path="url(#SVGID_2_)" fill="#FFFFFF" cx="780.488" cy="93.197" rx="3.576" ry="3.535"/>
	<polygon opacity="0.29" clip-path="url(#SVGID_2_)" fill="none" stroke="#FFFFFF" stroke-miterlimit="10" points="732.26,207.824 
		780.488,92.967 907.517,207.824 780.488,322.683 	"/>
	<ellipse opacity="0.29" clip-path="url(#SVGID_2_)" fill="#FFFFFF" cx="1034.78" cy="322.074" rx="3.576" ry="3.535"/>
	<ellipse opacity="0.29" clip-path="url(#SVGID_2_)" fill="#FFFFFF" cx="909.15" cy="436.939" rx="3.576" ry="3.537"/>
	<ellipse opacity="0.29" clip-path="url(#SVGID_2_)" fill="#FFFFFF" cx="860.963" cy="322.926" rx="3.576" ry="3.536"/>
	<ellipse opacity="0.29" clip-path="url(#SVGID_2_)" fill="#FFFFFF" cx="909.15" cy="208.062" rx="3.576" ry="3.536"/>
	<ellipse opacity="0.29" clip-path="url(#SVGID_2_)" fill="#FFFFFF" cx="1083.828" cy="436.939" rx="3.576" ry="3.537"/>
	<ellipse opacity="0.29" clip-path="url(#SVGID_2_)" fill="#FFFFFF" cx="958.199" cy="551.803" rx="3.575" ry="3.535"/>
	<ellipse opacity="0.29" clip-path="url(#SVGID_2_)" fill="#FFFFFF" cx="910.011" cy="437.789" rx="3.577" ry="3.535"/>
	<path opacity="0.21" clip-path="url(#SVGID_2_)" fill="#FFFFFF" d="M726.435,436.789c0-3.43,2.815-6.21,6.284-6.21
		c3.467,0,6.281,2.78,6.281,6.21c0,3.431-2.814,6.211-6.281,6.211C729.25,443,726.435,440.22,726.435,436.789z"/>
	<path opacity="0.21" clip-path="url(#SVGID_2_)" fill="#FFFFFF" d="M942.855,551.789c0-8.659,7.109-15.678,15.864-15.678
		c8.752,0,15.858,7.019,15.858,15.678c0,8.66-7.106,15.68-15.858,15.68C949.965,567.469,942.855,560.449,942.855,551.789z"/>
	<path opacity="0.21" clip-path="url(#SVGID_2_)" fill="#FFFFFF" d="M540.855,437.789c0-8.659,7.109-15.678,15.864-15.678
		c8.752,0,15.858,7.019,15.858,15.678c0,8.66-7.106,15.68-15.858,15.68C547.965,453.469,540.855,446.449,540.855,437.789z"/>
	<path opacity="0.21" clip-path="url(#SVGID_2_)" fill="#FFFFFF" d="M231.855,343.789c0-8.659,7.109-15.678,15.864-15.678
		c8.752,0,15.858,7.019,15.858,15.678c0,8.66-7.106,15.68-15.858,15.68C238.965,359.469,231.855,352.449,231.855,343.789z"/>
	<path opacity="0.21" clip-path="url(#SVGID_2_)" fill="#FFFFFF" d="M14.855,208.789c0-8.659,7.109-15.678,15.864-15.678
		c8.752,0,15.858,7.019,15.858,15.678c0,8.661-7.106,15.68-15.858,15.68C21.965,224.468,14.855,217.449,14.855,208.789z"/>
	<path opacity="0.21" clip-path="url(#SVGID_2_)" fill="#FFFFFF" d="M412.855,94.789c0-8.659,7.109-15.678,15.864-15.678
		c8.752,0,15.858,7.019,15.858,15.678c0,8.661-7.106,15.68-15.858,15.68C419.965,110.468,412.855,103.449,412.855,94.789z"/>
	<path opacity="0.21" clip-path="url(#SVGID_2_)" fill="#FFFFFF" d="M897.855,91.789c0-8.659,7.109-15.678,15.864-15.678
		c8.752,0,15.858,7.019,15.858,15.678c0,8.661-7.106,15.68-15.858,15.68C904.965,107.468,897.855,100.449,897.855,91.789z"/>
	<path opacity="0.21" clip-path="url(#SVGID_2_)" fill="#FFFFFF" d="M1288.855,93.789c0-8.659,7.109-15.678,15.864-15.678
		c8.752,0,15.858,7.019,15.858,15.678c0,8.661-7.106,15.68-15.858,15.68C1295.965,109.468,1288.855,102.449,1288.855,93.789z"/>
	<path opacity="0.21" clip-path="url(#SVGID_2_)" fill="#FFFFFF" d="M1127.855,212.789c0-8.659,7.109-15.678,15.864-15.678
		c8.752,0,15.858,7.019,15.858,15.678c0,8.661-7.106,15.68-15.858,15.68C1134.965,228.468,1127.855,221.449,1127.855,212.789z"/>
	<path opacity="0.21" clip-path="url(#SVGID_2_)" fill="#FFFFFF" d="M1113.855,322.789c0-8.659,7.109-15.678,15.864-15.678
		c8.752,0,15.858,7.019,15.858,15.678c0,8.66-7.106,15.68-15.858,15.68C1120.965,338.469,1113.855,331.449,1113.855,322.789z"/>
	<path opacity="0.21" clip-path="url(#SVGID_2_)" fill="#FFFFFF" d="M1066.855,435.789c0-8.659,7.109-15.678,15.864-15.678
		c8.752,0,15.858,7.019,15.858,15.678c0,8.66-7.106,15.68-15.858,15.68C1073.965,451.469,1066.855,444.449,1066.855,435.789z"/>
	<path opacity="0.21" clip-path="url(#SVGID_2_)" fill="#FFFFFF" d="M764.855,550.789c0-8.659,7.109-15.678,15.864-15.678
		c8.752,0,15.858,7.019,15.858,15.678c0,8.66-7.106,15.68-15.858,15.68C771.965,566.469,764.855,559.449,764.855,550.789z"/>
	<ellipse opacity="0.29" clip-path="url(#SVGID_2_)" fill="#FFFFFF" cx="958.199" cy="322.926" rx="3.575" ry="3.536"/>
	<polygon opacity="0.29" clip-path="url(#SVGID_2_)" fill="none" stroke="#FFFFFF" stroke-miterlimit="10" points="909.968,437.553 
		958.199,322.694 1085.225,437.553 958.199,552.41 	"/>
	<ellipse opacity="0.29" clip-path="url(#SVGID_2_)" fill="#FFFFFF" cx="1082.966" cy="207.211" rx="3.575" ry="3.536"/>
	<ellipse opacity="0.29" clip-path="url(#SVGID_2_)" fill="#FFFFFF" cx="957.337" cy="322.074" rx="3.576" ry="3.535"/>
	<ellipse opacity="0.29" clip-path="url(#SVGID_2_)" fill="#FFFFFF" cx="957.337" cy="93.197" rx="3.576" ry="3.535"/>
	<polygon opacity="0.29" clip-path="url(#SVGID_2_)" fill="none" stroke="#FFFFFF" stroke-miterlimit="10" points="909.109,207.824 
		957.337,92.967 1084.365,207.824 957.337,322.683 	"/>
	<ellipse opacity="0.29" clip-path="url(#SVGID_2_)" fill="#FFFFFF" cx="1206.689" cy="322.074" rx="3.576" ry="3.535"/>
	<ellipse opacity="0.29" clip-path="url(#SVGID_2_)" fill="#FFFFFF" cx="1081.059" cy="436.939" rx="3.576" ry="3.537"/>
	<ellipse opacity="0.29" clip-path="url(#SVGID_2_)" fill="#FFFFFF" cx="1032.873" cy="322.926" rx="3.575" ry="3.536"/>
	<ellipse opacity="0.29" clip-path="url(#SVGID_2_)" fill="#FFFFFF" cx="1081.059" cy="208.062" rx="3.576" ry="3.536"/>
	<polygon opacity="0.29" clip-path="url(#SVGID_2_)" fill="none" stroke="#FFFFFF" stroke-miterlimit="10" points="1032.83,322.688 
		1081.06,207.83 1208.086,322.688 1081.06,437.547 	"/>
	<ellipse opacity="0.29" clip-path="url(#SVGID_2_)" fill="#FFFFFF" cx="1255.736" cy="436.939" rx="3.576" ry="3.537"/>
	<ellipse opacity="0.29" clip-path="url(#SVGID_2_)" fill="#FFFFFF" cx="1130.106" cy="551.803" rx="3.576" ry="3.535"/>
	<ellipse opacity="0.29" clip-path="url(#SVGID_2_)" fill="#FFFFFF" cx="1081.919" cy="437.789" rx="3.576" ry="3.535"/>
	<ellipse opacity="0.29" clip-path="url(#SVGID_2_)" fill="#FFFFFF" cx="1130.106" cy="322.926" rx="3.576" ry="3.536"/>
	<polygon opacity="0.29" clip-path="url(#SVGID_2_)" fill="none" stroke="#FFFFFF" stroke-miterlimit="10" points="
		1081.877,437.553 1130.106,322.694 1257.135,437.553 1130.106,552.41 	"/>
	<ellipse opacity="0.29" clip-path="url(#SVGID_2_)" fill="#FFFFFF" cx="1254.875" cy="207.211" rx="3.576" ry="3.536"/>
	<ellipse opacity="0.29" clip-path="url(#SVGID_2_)" fill="#FFFFFF" cx="1129.246" cy="322.074" rx="3.575" ry="3.535"/>
	<ellipse opacity="0.29" clip-path="url(#SVGID_2_)" fill="#FFFFFF" cx="1129.246" cy="93.197" rx="3.575" ry="3.535"/>
	<polygon opacity="0.29" clip-path="url(#SVGID_2_)" fill="none" stroke="#FFFFFF" stroke-miterlimit="10" points="
		1081.018,207.824 1129.246,92.967 1256.274,207.824 1129.246,322.683 	"/>
	<ellipse opacity="0.29" clip-path="url(#SVGID_2_)" fill="#FFFFFF" cx="1257.908" cy="436.939" rx="3.576" ry="3.537"/>
	<ellipse opacity="0.29" clip-path="url(#SVGID_2_)" fill="#FFFFFF" cx="1209.722" cy="322.926" rx="3.576" ry="3.536"/>
	<ellipse opacity="0.29" clip-path="url(#SVGID_2_)" fill="#FFFFFF" cx="1257.908" cy="208.062" rx="3.576" ry="3.536"/>
	<ellipse opacity="0.29" clip-path="url(#SVGID_2_)" fill="#FFFFFF" cx="1143.908" cy="213.062" rx="3.576" ry="3.536"/>
	<ellipse opacity="0.29" clip-path="url(#SVGID_2_)" fill="#FFFFFF" cx="1056.908" cy="266.062" rx="3.576" ry="3.536"/>
	<polygon opacity="0.29" clip-path="url(#SVGID_2_)" fill="none" stroke="#FFFFFF" stroke-miterlimit="10" points="
		1209.679,322.688 1257.908,207.83 1384.936,322.688 1257.908,437.547 	"/>
	<ellipse opacity="0.29" clip-path="url(#SVGID_2_)" fill="#FFFFFF" cx="1306.955" cy="551.803" rx="3.576" ry="3.535"/>
	<ellipse opacity="0.29" clip-path="url(#SVGID_2_)" fill="#FFFFFF" cx="1258.767" cy="437.789" rx="3.576" ry="3.535"/>
	<ellipse opacity="0.29" clip-path="url(#SVGID_2_)" fill="#FFFFFF" cx="1306.955" cy="322.926" rx="3.576" ry="3.536"/>
	<polygon opacity="0.29" clip-path="url(#SVGID_2_)" fill="none" stroke="#FFFFFF" stroke-miterlimit="10" points="
		1258.726,437.553 1306.955,322.694 1433.982,437.553 1306.955,552.41 	"/>
	<ellipse opacity="0.29" clip-path="url(#SVGID_2_)" fill="#FFFFFF" cx="1306.095" cy="322.074" rx="3.576" ry="3.535"/>
	<ellipse opacity="0.29" clip-path="url(#SVGID_2_)" fill="#FFFFFF" cx="1306.095" cy="93.197" rx="3.576" ry="3.535"/>
	<polygon opacity="0.29" clip-path="url(#SVGID_2_)" fill="none" stroke="#FFFFFF" stroke-miterlimit="10" points="
		1257.866,207.824 1306.095,92.967 1433.122,207.824 1306.095,322.683 	"/>
	<ellipse opacity="0.29" clip-path="url(#SVGID_2_)" fill="#FFFFFF" cx="247.747" cy="35.017" rx="4.828" ry="4.773"/>
	<ellipse opacity="0.29" clip-path="url(#SVGID_2_)" fill="#FFFFFF" cx="312.796" cy="188.926" rx="4.826" ry="4.772"/>
	<path opacity="0.29" clip-path="url(#SVGID_2_)" fill="#FFFFFF" d="M252.574,343.982c0,2.637-2.162,4.773-4.827,4.773
		c-2.666,0-4.828-2.137-4.828-4.773c0-2.633,2.162-4.772,4.828-4.772C250.412,339.21,252.574,341.35,252.574,343.982z"/>
	<polygon opacity="0.29" clip-path="url(#SVGID_2_)" fill="none" stroke="#FFFFFF" stroke-miterlimit="10" points="312.852,189.245 
		247.747,344.297 76.269,189.245 247.747,34.195 	"/>
	<ellipse opacity="0.29" clip-path="url(#SVGID_2_)" fill="#FFFFFF" cx="246.584" cy="33.868" rx="4.826" ry="4.773"/>
	<ellipse opacity="0.29" clip-path="url(#SVGID_2_)" fill="#FFFFFF" cx="181.537" cy="188.926" rx="4.827" ry="4.772"/>
	<ellipse opacity="0.29" clip-path="url(#SVGID_2_)" fill="#FFFFFF" cx="182.697" cy="190.074" rx="4.826" ry="4.771"/>
	<ellipse opacity="0.29" clip-path="url(#SVGID_2_)" fill="#FFFFFF" cx="182.697" cy="499.041" rx="4.826" ry="4.773"/>
	<polygon opacity="0.29" clip-path="url(#SVGID_2_)" fill="none" stroke="#FFFFFF" stroke-miterlimit="10" points="247.804,344.304 
		182.699,499.353 11.219,344.304 182.699,189.253 	"/>
	<ellipse opacity="0.29" clip-path="url(#SVGID_2_)" fill="#FFFFFF" cx="488.747" cy="189.017" rx="4.828" ry="4.773"/>
	<ellipse opacity="0.29" clip-path="url(#SVGID_2_)" fill="#FFFFFF" cx="553.796" cy="342.926" rx="4.826" ry="4.772"/>
	<path opacity="0.29" clip-path="url(#SVGID_2_)" fill="#FFFFFF" d="M493.574,497.982c0,2.637-2.162,4.773-4.827,4.773
		c-2.666,0-4.828-2.137-4.828-4.773c0-2.633,2.162-4.772,4.828-4.772C491.412,493.21,493.574,495.35,493.574,497.982z"/>
	<polygon opacity="0.29" clip-path="url(#SVGID_2_)" fill="none" stroke="#FFFFFF" stroke-miterlimit="10" points="553.852,343.245 
		488.747,498.297 317.269,343.245 488.747,188.195 	"/>
	<ellipse opacity="0.29" clip-path="url(#SVGID_2_)" fill="#FFFFFF" cx="422.537" cy="33.958" rx="4.827" ry="4.773"/>
	<ellipse opacity="0.29" clip-path="url(#SVGID_2_)" fill="#FFFFFF" cx="487.584" cy="187.868" rx="4.826" ry="4.773"/>
	<ellipse opacity="0.29" clip-path="url(#SVGID_2_)" fill="#FFFFFF" cx="422.537" cy="342.926" rx="4.827" ry="4.772"/>
	<polygon opacity="0.29" clip-path="url(#SVGID_2_)" fill="none" stroke="#FFFFFF" stroke-miterlimit="10" points="487.643,188.188 
		422.535,343.238 251.06,188.188 422.535,33.138 	"/>
	<ellipse opacity="0.29" clip-path="url(#SVGID_2_)" fill="#FFFFFF" cx="423.697" cy="344.074" rx="4.826" ry="4.771"/>
	<polygon opacity="0.29" clip-path="url(#SVGID_2_)" fill="none" stroke="#FFFFFF" stroke-miterlimit="10" points="488.804,498.304 
		423.699,653.353 252.219,498.304 423.699,343.253 	"/>
	
		<ellipse transform="matrix(-0.2524 -0.9676 0.9676 -0.2524 256.3308 222.6499)" opacity="0.29" clip-path="url(#SVGID_2_)" fill="#FFFFFF" cx="214.181" cy="12.297" rx="4.828" ry="4.773"/>
	<polygon opacity="0.29" clip-path="url(#SVGID_2_)" fill="none" stroke="#FFFFFF" stroke-miterlimit="10" points="346.986,-89.623 
		513.45,-65.756 406.693,139.302 213.387,12.504 	"/>
	
		<ellipse transform="matrix(-0.2524 -0.9676 0.9676 -0.2524 -10.4991 222.8814)" opacity="0.29" clip-path="url(#SVGID_2_)" fill="#FFFFFF" cx="80.851" cy="115.497" rx="4.827" ry="4.774"/>
	
		<ellipse transform="matrix(-0.2523 -0.9676 0.9676 -0.2523 253.9299 223.6323)" opacity="0.29" clip-path="url(#SVGID_2_)" fill="#FFFFFF" cx="213.363" cy="13.713" rx="4.826" ry="4.773"/>
	<path opacity="0.29" clip-path="url(#SVGID_2_)" fill="#FFFFFF" d="M378.6,32.852c2.55-0.665,5.163,0.886,5.836,3.467
		c0.673,2.577-0.851,5.208-3.399,5.874c-2.553,0.666-5.164-0.888-5.836-3.464C374.527,36.146,376.047,33.518,378.6,32.852z"/>
	<polygon opacity="0.29" clip-path="url(#SVGID_2_)" fill="none" stroke="#FFFFFF" stroke-miterlimit="10" points="213.657,13.575 
		380.121,37.445 273.364,242.5 80.058,115.705 	"/>
	<polygon opacity="0.29" clip-path="url(#SVGID_2_)" fill="none" stroke="#FFFFFF" stroke-miterlimit="10" points="-18.343,-82.425 
		148.121,-58.555 41.364,146.5 -151.942,19.705 	"/>
	<polygon opacity="0.29" clip-path="url(#SVGID_2_)" fill="none" stroke="#FFFFFF" stroke-miterlimit="10" points="
		108.802,-156.898 204.958,-18.935 -17.78,42.973 -57.023,-184.853 	"/>
	
		<ellipse transform="matrix(-0.2523 -0.9676 0.9676 -0.2523 441.7411 413.5396)" opacity="0.29" clip-path="url(#SVGID_2_)" fill="#FFFFFF" cx="380.636" cy="36.109" rx="4.826" ry="4.772"/>
	
		<ellipse transform="matrix(-0.2524 -0.9676 0.9676 -0.2524 891.6518 605.1645)" opacity="0.29" clip-path="url(#SVGID_2_)" fill="#FFFFFF" cx="679.602" cy="-41.865" rx="4.826" ry="4.774"/>
	<polygon opacity="0.29" clip-path="url(#SVGID_2_)" fill="none" stroke="#FFFFFF" stroke-miterlimit="10" points="513.442,-65.813 
		679.902,-41.945 573.149,163.114 379.841,36.315 	"/>
	<path opacity="0.29" clip-path="url(#SVGID_2_)" fill="#FFFFFF" d="M629.333-33.56c2.424,1.029,3.548,3.856,2.507,6.309
		c-1.043,2.454-3.856,3.608-6.281,2.578c-2.426-1.031-3.549-3.856-2.506-6.31C624.095-33.436,626.906-34.591,629.333-33.56z"/>
	
		<ellipse transform="matrix(0.3908 -0.9205 0.9205 0.3908 510.5582 713.7861)" opacity="0.29" clip-path="url(#SVGID_2_)" fill="#FFFFFF" cx="794.536" cy="-28.827" rx="4.826" ry="4.773"/>
	
		<ellipse transform="matrix(0.3909 -0.9204 0.9204 0.3909 471.0073 895.093)" opacity="0.29" clip-path="url(#SVGID_2_)" fill="#FFFFFF" cx="911.829" cy="91.657" rx="4.828" ry="4.773"/>
	<polygon opacity="0.29" clip-path="url(#SVGID_2_)" fill="none" stroke="#FFFFFF" stroke-miterlimit="10" points="794.852,-28.754 
		912.117,91.78 702.372,189.005 626.69,-29.438 	"/>
	<path opacity="0.29" clip-path="url(#SVGID_2_)" fill="#FFFFFF" d="M460.73-33.229c2.427,1.032,3.549,3.854,2.506,6.311
		c-1.041,2.45-3.854,3.606-6.279,2.575c-2.427-1.031-3.549-3.856-2.507-6.307C455.492-33.106,458.303-34.26,460.73-33.229z"/>
	
		<ellipse transform="matrix(0.391 -0.9204 0.9204 0.391 407.3977 558.7419)" opacity="0.29" clip-path="url(#SVGID_2_)" fill="#FFFFFF" cx="625.934" cy="-28.495" rx="4.826" ry="4.774"/>
	
		<ellipse transform="matrix(0.3909 -0.9204 0.9204 0.3909 368.0213 740.1158)" opacity="0.29" clip-path="url(#SVGID_2_)" fill="#FFFFFF" cx="743.228" cy="91.988" rx="4.826" ry="4.772"/>
	<polygon opacity="0.29" clip-path="url(#SVGID_2_)" fill="none" stroke="#FFFFFF" stroke-miterlimit="10" points="626.25,-28.425 
		743.515,92.111 533.771,189.334 458.088,-29.105 	"/>
	
		<ellipse transform="matrix(0.3908 -0.9205 0.9205 0.3908 369.5724 741.1631)" opacity="0.29" clip-path="url(#SVGID_2_)" fill="#FFFFFF" cx="744.738" cy="91.368" rx="4.826" ry="4.772"/>
	
		<ellipse transform="matrix(0.3908 -0.9205 0.9205 0.3908 400.8816 716.4716)" opacity="0.29" clip-path="url(#SVGID_2_)" fill="#FFFFFF" cx="741.738" cy="55.368" rx="4.826" ry="4.772"/>
	
		<ellipse transform="matrix(0.3908 -0.9205 0.9205 0.3908 340.8044 647.6944)" opacity="0.29" clip-path="url(#SVGID_2_)" fill="#FFFFFF" cx="659.738" cy="66.368" rx="4.826" ry="4.772"/>
	
		<ellipse transform="matrix(0.3908 -0.9205 0.9205 0.3908 418.0725 702.4471)" opacity="0.29" clip-path="url(#SVGID_2_)" fill="#FFFFFF" cx="739.738" cy="35.368" rx="4.826" ry="4.772"/>
	
		<ellipse transform="matrix(0.3908 -0.9205 0.9205 0.3908 174.8279 480.9027)" opacity="0.29" clip-path="url(#SVGID_2_)" fill="#FFFFFF" cx="450.738" cy="108.368" rx="4.826" ry="4.772"/>
	
		<ellipse transform="matrix(0.3908 -0.9205 0.9205 0.3908 368.8905 580.1328)" opacity="0.29" clip-path="url(#SVGID_2_)" fill="#FFFFFF" cx="622.738" cy="11.368" rx="4.826" ry="4.772"/>
	
		<ellipse transform="matrix(0.3908 -0.9205 0.9205 0.3908 476.9611 851.4282)" opacity="0.29" clip-path="url(#SVGID_2_)" fill="#FFFFFF" cx="881.738" cy="65.368" rx="4.826" ry="4.772"/>
	
		<ellipse transform="matrix(0.3908 -0.9205 0.9205 0.3908 536.9014 869.9984)" opacity="0.29" clip-path="url(#SVGID_2_)" fill="#FFFFFF" cx="925.738" cy="29.368" rx="4.826" ry="4.772"/>
	
		<ellipse transform="matrix(0.3908 -0.9205 0.9205 0.3908 431.6601 1076.5134)" opacity="0.29" clip-path="url(#SVGID_2_)" fill="#FFFFFF" cx="1029.123" cy="212.143" rx="4.826" ry="4.773"/>
	<polygon opacity="0.29" clip-path="url(#SVGID_2_)" fill="none" stroke="#FFFFFF" stroke-miterlimit="10" points="912.146,91.73 
		1029.409,212.263 819.666,309.491 743.982,91.046 	"/>
	<path opacity="0.29" clip-path="url(#SVGID_2_)" fill="#FFFFFF" d="M1047.333-33.56c2.424,1.029,3.548,3.856,2.507,6.309
		c-1.043,2.454-3.856,3.608-6.281,2.578c-2.426-1.031-3.549-3.856-2.506-6.31C1042.095-33.436,1044.906-34.591,1047.333-33.56z"/>
	
		<ellipse transform="matrix(0.3908 -0.9205 0.9205 0.3908 765.1998 1098.5432)" opacity="0.29" clip-path="url(#SVGID_2_)" fill="#FFFFFF" cx="1212.536" cy="-28.827" rx="4.826" ry="4.773"/>
	
		<ellipse transform="matrix(0.3909 -0.9204 0.9204 0.3909 725.6 1279.8293)" opacity="0.29" clip-path="url(#SVGID_2_)" fill="#FFFFFF" cx="1329.829" cy="91.657" rx="4.828" ry="4.773"/>
	<polygon opacity="0.29" clip-path="url(#SVGID_2_)" fill="none" stroke="#FFFFFF" stroke-miterlimit="10" points="
		1212.852,-28.754 1330.117,91.78 1120.372,189.005 1044.69,-29.438 	"/>
	<path opacity="0.29" clip-path="url(#SVGID_2_)" fill="#FFFFFF" d="M878.73-33.229c2.427,1.032,3.549,3.854,2.506,6.311
		c-1.041,2.45-3.854,3.606-6.279,2.575c-2.427-1.031-3.549-3.856-2.507-6.307C873.492-33.106,876.303-34.26,878.73-33.229z"/>
	
		<ellipse transform="matrix(0.391 -0.9204 0.9204 0.391 661.9448 943.4589)" opacity="0.29" clip-path="url(#SVGID_2_)" fill="#FFFFFF" cx="1043.934" cy="-28.495" rx="4.826" ry="4.774"/>
	
		<ellipse transform="matrix(0.3909 -0.9204 0.9204 0.3909 622.6194 1124.8545)" opacity="0.29" clip-path="url(#SVGID_2_)" fill="#FFFFFF" cx="1161.228" cy="91.988" rx="4.826" ry="4.772"/>
	
		<ellipse transform="matrix(0.3908 -0.9205 0.9205 0.3908 624.2064 1125.917)" opacity="0.29" clip-path="url(#SVGID_2_)" fill="#FFFFFF" cx="1162.738" cy="91.368" rx="4.826" ry="4.772"/>
	
		<ellipse transform="matrix(0.3908 -0.9205 0.9205 0.3908 686.3016 1461.2705)" opacity="0.29" clip-path="url(#SVGID_2_)" fill="#FFFFFF" cx="1447.123" cy="212.143" rx="4.826" ry="4.773"/>
	<polygon opacity="0.29" clip-path="url(#SVGID_2_)" fill="none" stroke="#FFFFFF" stroke-miterlimit="10" points="1330.146,91.73 
		1447.409,212.263 1237.666,309.491 1161.982,91.046 	"/>
	
		<ellipse transform="matrix(0.9298 0.3682 -0.3682 0.9298 127.5382 -542.8739)" opacity="0.29" clip-path="url(#SVGID_2_)" fill="#FFFFFF" cx="1486.538" cy="62.816" rx="4.826" ry="4.774"/>
	
		<ellipse transform="matrix(0.9297 0.3683 -0.3683 0.9297 163.6127 -491.2806)" opacity="0.29" clip-path="url(#SVGID_2_)" fill="#FFFFFF" cx="1368.962" cy="183.025" rx="4.828" ry="4.773"/>
	<polygon opacity="0.29" clip-path="url(#SVGID_2_)" fill="none" stroke="#FFFFFF" stroke-miterlimit="10" points="1486.473,63.134 
		1368.847,183.316 1266.514,-23.984 1483.037,-104.993 	"/>
	
		<ellipse transform="matrix(0.9297 0.3682 -0.3682 0.9297 101.2205 -501.4586)" opacity="0.29" clip-path="url(#SVGID_2_)" fill="#FFFFFF" cx="1364.502" cy="14.482" rx="4.826" ry="4.772"/>
	<polygon opacity="0.29" clip-path="url(#SVGID_2_)" fill="none" stroke="#FFFFFF" stroke-miterlimit="10" points="
		1482.014,-105.409 1364.386,14.772 1262.056,-192.526 1478.576,-273.537 	"/>
	
		<ellipse transform="matrix(0.9298 0.3682 -0.3682 0.9298 101.7683 -501.4767)" opacity="0.29" clip-path="url(#SVGID_2_)" fill="#FFFFFF" cx="1365.159" cy="15.977" rx="4.826" ry="4.773"/>
	
		<ellipse transform="matrix(0.9297 0.3682 -0.3682 0.9297 199.5763 -439.4729)" opacity="0.29" clip-path="url(#SVGID_2_)" fill="#FFFFFF" cx="1251.385" cy="303.234" rx="4.827" ry="4.773"/>
	<polygon opacity="0.29" clip-path="url(#SVGID_2_)" fill="none" stroke="#FFFFFF" stroke-miterlimit="10" points="
		1368.896,183.345 1251.272,303.523 1148.937,96.225 1365.463,15.214 	"/>
	<polygon opacity="0.29" clip-path="url(#SVGID_2_)" fill="none" stroke="#FFFFFF" stroke-miterlimit="10" points="
		1278.896,352.345 1161.272,472.523 1058.937,265.225 1275.463,184.214 	"/>
	<polygon opacity="0.29" clip-path="url(#SVGID_2_)" fill="none" stroke="#FFFFFF" stroke-miterlimit="10" points="
		1363.896,299.345 1246.272,419.523 1143.937,212.225 1360.463,131.214 	"/>
	<polygon opacity="0.29" clip-path="url(#SVGID_2_)" fill="none" stroke="#FFFFFF" stroke-miterlimit="10" points="
		1136.969,373.003 1016.138,256.049 1222.865,152.562 1305.078,368.635 	"/>
	
		<ellipse transform="matrix(0.9298 0.3682 -0.3682 0.9298 108.0922 -414.9451)" opacity="0.29" clip-path="url(#SVGID_2_)" fill="#FFFFFF" cx="1141.538" cy="75.816" rx="4.826" ry="4.774"/>
	
		<ellipse transform="matrix(0.9297 0.3683 -0.3683 0.9297 144.1535 -363.3148)" opacity="0.29" clip-path="url(#SVGID_2_)" fill="#FFFFFF" cx="1023.962" cy="196.025" rx="4.828" ry="4.773"/>
	<polygon opacity="0.29" clip-path="url(#SVGID_2_)" fill="none" stroke="#FFFFFF" stroke-miterlimit="10" points="1141.473,76.134 
		1023.847,196.316 921.514,-10.984 1138.037,-91.993 	"/>
	
		<ellipse transform="matrix(0.9297 0.3682 -0.3682 0.9297 81.7635 -373.4992)" opacity="0.29" clip-path="url(#SVGID_2_)" fill="#FFFFFF" cx="1019.502" cy="27.482" rx="4.826" ry="4.772"/>
	<polygon opacity="0.29" clip-path="url(#SVGID_2_)" fill="none" stroke="#FFFFFF" stroke-miterlimit="10" points="
		1137.014,-92.409 1019.386,27.772 917.056,-179.526 1133.576,-260.537 	"/>
	
		<ellipse transform="matrix(0.9298 0.3682 -0.3682 0.9298 82.3223 -373.548)" opacity="0.29" clip-path="url(#SVGID_2_)" fill="#FFFFFF" cx="1020.159" cy="28.977" rx="4.826" ry="4.773"/>
	
		<ellipse transform="matrix(0.9297 0.3682 -0.3682 0.9297 180.1238 -311.5256)" opacity="0.29" clip-path="url(#SVGID_2_)" fill="#FFFFFF" cx="906.385" cy="316.234" rx="4.827" ry="4.773"/>
	<polygon opacity="0.29" clip-path="url(#SVGID_2_)" fill="none" stroke="#FFFFFF" stroke-miterlimit="10" points="
		1023.896,196.345 906.272,316.523 803.937,109.225 1020.463,28.214 	"/>
	
		<ellipse transform="matrix(0.9298 0.3681 -0.3681 0.9298 240.915 -529.3063)" opacity="0.29" clip-path="url(#SVGID_2_)" fill="#FFFFFF" cx="1507.735" cy="366.77" rx="4.828" ry="4.774"/>
	
		<ellipse transform="matrix(0.9297 0.3682 -0.3682 0.9297 302.7972 -519.1095)" opacity="0.29" clip-path="url(#SVGID_2_)" fill="#FFFFFF" cx="1511.538" cy="533.816" rx="4.826" ry="4.774"/>
	<polygon opacity="0.29" clip-path="url(#SVGID_2_)" fill="none" stroke="#FFFFFF" stroke-miterlimit="10" points="
		1522.473,546.134 1404.847,666.316 1302.514,459.016 1519.037,378.007 	"/>
	<path opacity="0.29" clip-path="url(#SVGID_2_)" fill="#FFFFFF" d="M1507.764,200.004c-0.972,2.451-3.767,3.642-6.247,2.659
		c-2.476-0.98-3.7-3.764-2.729-6.214c0.972-2.452,3.769-3.643,6.244-2.661C1507.512,194.77,1508.734,197.551,1507.764,200.004z"/>
	
		<ellipse transform="matrix(0.9297 0.3684 -0.3684 0.9297 240.5356 -529.4768)" opacity="0.29" clip-path="url(#SVGID_2_)" fill="#FFFFFF" cx="1507.077" cy="365.274" rx="4.826" ry="4.773"/>
	
		<ellipse transform="matrix(0.9297 0.3682 -0.3682 0.9297 276.4225 -477.5663)" opacity="0.29" clip-path="url(#SVGID_2_)" fill="#FFFFFF" cx="1389.502" cy="485.482" rx="4.826" ry="4.771"/>
	<polygon opacity="0.29" clip-path="url(#SVGID_2_)" fill="none" stroke="#FFFFFF" stroke-miterlimit="10" points="
		1507.014,365.591 1389.386,485.772 1287.056,278.474 1503.576,197.463 	"/>
	
		<ellipse transform="matrix(0.9298 0.3682 -0.3682 0.9298 276.9283 -477.5986)" opacity="0.29" clip-path="url(#SVGID_2_)" fill="#FFFFFF" cx="1390.159" cy="486.977" rx="4.826" ry="4.772"/>
	<polygon opacity="0.29" clip-path="url(#SVGID_2_)" fill="none" stroke="#FFFFFF" stroke-miterlimit="10" points="
		1393.896,654.345 1276.272,774.523 1173.937,567.225 1390.463,486.214 	"/>
	<polygon opacity="0.29" clip-path="url(#SVGID_2_)" fill="none" stroke="#FFFFFF" stroke-miterlimit="10" points="980.244,655.217 
		835.246,570.038 1011.758,420.742 1142.583,611.346 	"/>
	<path opacity="0.29" clip-path="url(#SVGID_2_)" fill="#FFFFFF" d="M997.408,529.898c-2.61-0.352-4.441-2.776-4.086-5.42
		c0.355-2.641,2.762-4.498,5.372-4.147c2.615,0.352,4.442,2.778,4.087,5.417C1002.426,528.393,1000.023,530.25,997.408,529.898z"/>
	<polygon opacity="0.29" clip-path="url(#SVGID_2_)" fill="none" stroke="#FFFFFF" stroke-miterlimit="10" points="1142.74,610.253 
		997.742,525.071 1174.254,375.779 1305.078,566.38 	"/>
	
		<ellipse transform="matrix(-0.1331 0.9911 -0.9911 -0.1331 1650.889 -391.7322)" opacity="0.29" clip-path="url(#SVGID_2_)" fill="#FFFFFF" cx="996.76" cy="526.113" rx="4.827" ry="4.773"/>
	
		<ellipse transform="matrix(-0.1331 0.9911 -0.9911 -0.1331 1263.1157 -134.8809)" opacity="0.29" clip-path="url(#SVGID_2_)" fill="#FFFFFF" cx="690.545" cy="484.955" rx="4.827" ry="4.773"/>
	<polygon opacity="0.29" clip-path="url(#SVGID_2_)" fill="none" stroke="#FFFFFF" stroke-miterlimit="10" points="835.231,570.093 
		690.237,484.915 866.746,335.617 997.574,526.223 	"/>
	
		<ellipse transform="matrix(0.1331 -0.9911 0.9911 0.1331 -55.2241 744.3918)" opacity="0.29" clip-path="url(#SVGID_2_)" fill="#FFFFFF" cx="397.911" cy="403.764" rx="4.828" ry="4.773"/>
	<path opacity="0.29" clip-path="url(#SVGID_2_)" fill="#FFFFFF" d="M559.755,355.014c2.612,0.352,4.442,2.777,4.088,5.419
		c-0.355,2.644-2.763,4.498-5.373,4.148c-2.614-0.351-4.44-2.776-4.086-5.421C554.738,356.521,557.143,354.663,559.755,355.014z"/>
	<path opacity="0.29" clip-path="url(#SVGID_2_)" fill="#FFFFFF" d="M704.767,440.137c2.611,0.352,4.441,2.779,4.087,5.42
		c-0.355,2.643-2.762,4.502-5.374,4.15c-2.609-0.352-4.442-2.779-4.087-5.422C699.75,441.645,702.156,439.787,704.767,440.137z"/>
	<polygon opacity="0.29" clip-path="url(#SVGID_2_)" fill="none" stroke="#FFFFFF" stroke-miterlimit="10" points="559.436,359.785 
		704.434,444.963 527.922,594.26 397.097,403.655 	"/>
	<path opacity="0.29" clip-path="url(#SVGID_2_)" fill="#FFFFFF" d="M236.059,443.945c2.613,0.352,4.441,2.777,4.086,5.422
		c-0.355,2.639-2.761,4.498-5.372,4.146c-2.614-0.353-4.444-2.779-4.089-5.419C231.039,445.451,233.443,443.594,236.059,443.945z"/>
	<path opacity="0.29" clip-path="url(#SVGID_2_)" fill="#FFFFFF" d="M542.271,485.104c2.61,0.351,4.441,2.775,4.086,5.42
		c-0.355,2.641-2.762,4.498-5.372,4.146c-2.615-0.352-4.442-2.777-4.087-5.417C537.254,486.609,539.656,484.752,542.271,485.104z"/>
	
		<ellipse transform="matrix(0.1331 -0.9911 0.9911 0.1331 -13.9028 961.882)" opacity="0.29" clip-path="url(#SVGID_2_)" fill="#FFFFFF" cx="542.92" cy="488.889" rx="4.826" ry="4.773"/>
	
		<ellipse transform="matrix(0.1331 -0.9911 0.9911 0.1331 210.7495 1301.0486)" opacity="0.29" clip-path="url(#SVGID_2_)" fill="#FFFFFF" cx="849.135" cy="530.047" rx="4.826" ry="4.773"/>
	<polygon opacity="0.29" clip-path="url(#SVGID_2_)" fill="none" stroke="#FFFFFF" stroke-miterlimit="10" points="704.448,444.908 
		849.442,530.086 672.934,679.385 542.105,488.778 	"/>
	
		<ellipse transform="matrix(0.1331 -0.9911 0.9911 0.1331 -247.059 543.0714)" opacity="0.29" clip-path="url(#SVGID_2_)" fill="#FFFFFF" cx="186.911" cy="412.764" rx="4.828" ry="4.773"/>
	<path opacity="0.29" clip-path="url(#SVGID_2_)" fill="#FFFFFF" d="M348.755,364.014c2.612,0.352,4.442,2.777,4.088,5.419
		c-0.355,2.644-2.763,4.498-5.373,4.148c-2.614-0.351-4.44-2.776-4.086-5.421C343.738,365.521,346.143,363.663,348.755,364.014z"/>
	<path opacity="0.29" clip-path="url(#SVGID_2_)" fill="#FFFFFF" d="M493.767,449.137c2.611,0.352,4.441,2.779,4.087,5.42
		c-0.355,2.643-2.762,4.502-5.374,4.15c-2.609-0.352-4.442-2.779-4.087-5.422C488.75,450.645,491.156,448.787,493.767,449.137z"/>
	<polygon opacity="0.29" clip-path="url(#SVGID_2_)" fill="none" stroke="#FFFFFF" stroke-miterlimit="10" points="348.436,368.785 
		493.434,453.963 316.922,603.26 186.097,412.655 	"/>
	<path opacity="0.29" clip-path="url(#SVGID_2_)" fill="#FFFFFF" d="M25.059,452.945c2.613,0.352,4.441,2.777,4.086,5.422
		c-0.355,2.639-2.761,4.498-5.372,4.146c-2.614-0.353-4.444-2.779-4.089-5.419C20.039,454.451,22.443,452.594,25.059,452.945z"/>
	<path opacity="0.29" clip-path="url(#SVGID_2_)" fill="#FFFFFF" d="M186.261,408.98c2.61,0.352,4.44,2.775,4.089,5.416
		c-0.355,2.645-2.762,4.502-5.375,4.15c-2.615-0.351-4.443-2.778-4.088-5.422C181.241,410.484,183.646,408.631,186.261,408.98z"/>
	<path opacity="0.29" clip-path="url(#SVGID_2_)" fill="#FFFFFF" d="M331.271,494.104c2.61,0.351,4.441,2.775,4.086,5.42
		c-0.355,2.641-2.762,4.498-5.372,4.146c-2.615-0.352-4.442-2.777-4.087-5.417C326.254,495.609,328.656,493.752,331.271,494.104z"/>
	<polygon opacity="0.29" clip-path="url(#SVGID_2_)" fill="none" stroke="#FFFFFF" stroke-miterlimit="10" points="185.939,413.748 
		330.938,498.93 154.426,648.223 23.602,457.621 	"/>
	
		<ellipse transform="matrix(0.1331 -0.9911 0.9911 0.1331 -205.7292 760.5623)" opacity="0.29" clip-path="url(#SVGID_2_)" fill="#FFFFFF" cx="331.92" cy="497.889" rx="4.826" ry="4.773"/>
	
		<ellipse transform="matrix(0.1331 -0.9911 0.9911 0.1331 18.9231 1099.729)" opacity="0.29" clip-path="url(#SVGID_2_)" fill="#FFFFFF" cx="638.135" cy="539.047" rx="4.826" ry="4.773"/>
	
		<ellipse transform="matrix(0.1331 -0.9911 0.9911 0.1331 -419.8221 363.5552)" opacity="0.29" clip-path="url(#SVGID_2_)" fill="#FFFFFF" cx="-2.089" cy="421.764" rx="4.828" ry="4.773"/>
	<path opacity="0.29" clip-path="url(#SVGID_2_)" fill="#FFFFFF" d="M304.767,458.137c2.611,0.352,4.441,2.779,4.087,5.42
		c-0.355,2.643-2.762,4.502-5.374,4.15c-2.609-0.352-4.442-2.779-4.087-5.422C299.75,459.645,302.156,457.787,304.767,458.137z"/>
	<polygon opacity="0.29" clip-path="url(#SVGID_2_)" fill="none" stroke="#FFFFFF" stroke-miterlimit="10" points="159.436,377.785 
		304.434,462.963 127.922,612.26 -2.903,421.655 	"/>
	<path opacity="0.29" clip-path="url(#SVGID_2_)" fill="#FFFFFF" d="M-2.739,417.98c2.61,0.352,4.44,2.775,4.089,5.416
		c-0.355,2.645-2.762,4.502-5.375,4.15c-2.615-0.351-4.443-2.778-4.088-5.422C-7.759,419.484-5.354,417.631-2.739,417.98z"/>
	<path opacity="0.29" clip-path="url(#SVGID_2_)" fill="#FFFFFF" d="M142.271,503.104c2.61,0.351,4.441,2.775,4.086,5.42
		c-0.355,2.641-2.762,4.498-5.372,4.146c-2.615-0.352-4.442-2.777-4.087-5.417C137.254,504.609,139.656,502.752,142.271,503.104z"/>
	<polygon opacity="0.29" clip-path="url(#SVGID_2_)" fill="none" stroke="#FFFFFF" stroke-miterlimit="10" points="-3.061,422.748 
		141.938,507.93 -34.574,657.223 -165.398,466.621 	"/>
	
		<ellipse transform="matrix(0.1331 -0.9911 0.9911 0.1331 -378.4847 581.0467)" opacity="0.29" clip-path="url(#SVGID_2_)" fill="#FFFFFF" cx="142.92" cy="506.889" rx="4.826" ry="4.773"/>
	
		<ellipse transform="matrix(0.1331 -0.9911 0.9911 0.1331 -153.8325 920.2134)" opacity="0.29" clip-path="url(#SVGID_2_)" fill="#FFFFFF" cx="449.135" cy="548.047" rx="4.826" ry="4.773"/>
	<polygon opacity="0.29" clip-path="url(#SVGID_2_)" fill="none" stroke="#FFFFFF" stroke-miterlimit="10" points="304.448,462.908 
		449.442,548.086 272.934,697.385 142.105,506.778 	"/>
	
		<ellipse transform="matrix(0.9321 -0.3623 0.3623 0.9321 -115.7585 52.8736)" opacity="0.29" clip-path="url(#SVGID_2_)" fill="#FFFFFF" cx="83.114" cy="335.12" rx="4.828" ry="4.773"/>
	<polygon opacity="0.29" clip-path="url(#SVGID_2_)" fill="none" stroke="#FFFFFF" stroke-miterlimit="10" points="199.646,455.307 
		195.104,623.412 -20.883,540.975 82.816,334.354 	"/>
	
		<ellipse transform="matrix(0.9321 -0.3621 0.3621 0.9321 -80.0442 1.9767)" opacity="0.29" clip-path="url(#SVGID_2_)" fill="#FFFFFF" cx="-34.748" cy="214.559" rx="4.827" ry="4.772"/>
	<path opacity="0.29" clip-path="url(#SVGID_2_)" fill="#FFFFFF" d="M81.625,500.813c0.954,2.455-0.285,5.229-2.771,6.195
		c-2.483,0.964-5.271-0.246-6.226-2.701c-0.956-2.459,0.286-5.231,2.769-6.195C77.884,497.146,80.67,498.352,81.625,500.813z"/>
	<polygon opacity="0.29" clip-path="url(#SVGID_2_)" fill="none" stroke="#FFFFFF" stroke-miterlimit="10" points="81.783,334.745 
		77.238,502.852 -138.744,420.412 -35.047,213.794 	"/>
	
		<ellipse transform="matrix(0.9321 -0.3622 0.3622 0.9321 -176.9221 62.6447)" opacity="0.29" clip-path="url(#SVGID_2_)" fill="#FFFFFF" cx="78.625" cy="503.208" rx="4.826" ry="4.773"/>
	<polygon opacity="0.29" clip-path="url(#SVGID_2_)" fill="none" stroke="#FFFFFF" stroke-miterlimit="10" points="195.158,623.398 
		190.614,791.499 -25.371,709.064 78.327,502.441 	"/>
	
		<ellipse transform="matrix(-0.5909 -0.8068 0.8068 -0.5909 1410.7318 1669.3098)" opacity="0.29" clip-path="url(#SVGID_2_)" fill="#FFFFFF" cx="1128.646" cy="476.941" rx="2.72" ry="2.69"/>
	
		<ellipse transform="matrix(-0.5909 -0.8067 0.8067 -0.5909 1552.9558 1579.6559)" opacity="0.29" clip-path="url(#SVGID_2_)" fill="#FFFFFF" cx="1176.973" cy="396.103" rx="2.72" ry="2.691"/>
	
		<ellipse transform="matrix(-0.5909 -0.8068 0.8068 -0.5909 1717.264 1618.9712)" opacity="0.29" clip-path="url(#SVGID_2_)" fill="#FFFFFF" cx="1269.148" cy="374.045" rx="2.72" ry="2.691"/>
	<polygon opacity="0.29" clip-path="url(#SVGID_2_)" fill="none" stroke="#FFFFFF" stroke-miterlimit="10" points="1177.1,395.971 
		1269.291,373.94 1255.889,503.557 1128.272,477.214 	"/>
	
		<ellipse transform="matrix(-0.5908 -0.8068 0.8068 -0.5908 1409.7356 1670.6603)" opacity="0.29" clip-path="url(#SVGID_2_)" fill="#FFFFFF" cx="1128.511" cy="477.852" rx="2.72" ry="2.69"/>
	
		<ellipse transform="matrix(-0.5909 -0.8068 0.8068 -0.5909 1574.2157 1709.9229)" opacity="0.29" clip-path="url(#SVGID_2_)" fill="#FFFFFF" cx="1220.687" cy="455.793" rx="2.72" ry="2.691"/>
	<polygon opacity="0.29" clip-path="url(#SVGID_2_)" fill="none" stroke="#FFFFFF" stroke-miterlimit="10" points="
		1128.637,477.719 1220.828,455.689 1207.426,585.305 1079.811,558.963 	"/>
	
		<ellipse transform="matrix(-0.5909 -0.8068 0.8068 -0.5909 1575.1667 1708.5829)" opacity="0.29" clip-path="url(#SVGID_2_)" fill="#FFFFFF" cx="1220.822" cy="454.882" rx="2.72" ry="2.689"/>
	
		<ellipse transform="matrix(-0.5908 -0.8068 0.8068 -0.5908 1881.6486 1658.2656)" opacity="0.29" clip-path="url(#SVGID_2_)" fill="#FFFFFF" cx="1361.325" cy="351.987" rx="2.72" ry="2.691"/>
	<polygon opacity="0.29" clip-path="url(#SVGID_2_)" fill="none" stroke="#FFFFFF" stroke-miterlimit="10" points="
		1269.275,373.912 1361.466,351.883 1348.065,481.5 1220.448,455.155 	"/>
	<ellipse opacity="0.29" clip-path="url(#SVGID_2_)" fill="#FFFFFF" cx="1040.168" cy="448.984" rx="1.452" ry="1.469"/>
	<ellipse opacity="0.29" clip-path="url(#SVGID_2_)" fill="#FFFFFF" cx="1087.006" cy="429.188" rx="1.453" ry="1.469"/>
	<ellipse opacity="0.29" clip-path="url(#SVGID_2_)" fill="#FFFFFF" cx="1085.006" cy="431.188" rx="1.453" ry="1.469"/>
	<ellipse opacity="0.29" clip-path="url(#SVGID_2_)" fill="#FFFFFF" cx="1134.194" cy="448.984" rx="1.452" ry="1.469"/>
	<polygon opacity="0.29" clip-path="url(#SVGID_2_)" fill="none" stroke="#FFFFFF" stroke-miterlimit="10" points="306.104,390.171 
		365.535,415.125 306.104,480.854 246.673,415.125 	"/>
	<polygon opacity="0.29" clip-path="url(#SVGID_2_)" fill="none" stroke="#FFFFFF" stroke-miterlimit="10" points="738.448,37.909 
		883.442,123.086 706.934,272.385 576.105,81.778 	"/>
	<polygon opacity="0.29" clip-path="url(#SVGID_2_)" fill="none" stroke="#FFFFFF" stroke-miterlimit="10" points="740.104,-34.829 
		799.535,-9.875 740.104,55.854 680.673,-9.875 	"/>
	<polygon opacity="0.29" clip-path="url(#SVGID_2_)" fill="none" stroke="#FFFFFF" stroke-miterlimit="10" points="581.949,260.301 
		418.226,221.916 542.565,27.018 723.998,170.294 	"/>
	<polygon opacity="0.29" clip-path="url(#SVGID_2_)" fill="none" stroke="#FFFFFF" stroke-miterlimit="10" points="586.161,72.626 
		526.309,229.776 349.711,80.584 515.879,-80.148 	"/>
	<polygon opacity="0.29" clip-path="url(#SVGID_2_)" fill="none" stroke="#FFFFFF" stroke-miterlimit="10" points="658.159,62.149 
		643.446,124.906 568.742,77.245 623.66,7.702 	"/>
	<ellipse opacity="0.29" clip-path="url(#SVGID_2_)" fill="#FFFFFF" cx="992.979" cy="469.133" rx="1.453" ry="1.469"/>
	<ellipse opacity="0.29" clip-path="url(#SVGID_2_)" fill="#FFFFFF" cx="1039.818" cy="449.338" rx="1.452" ry="1.469"/>
	<ellipse opacity="0.29" clip-path="url(#SVGID_2_)" fill="#FFFFFF" cx="1087.006" cy="469.133" rx="1.453" ry="1.469"/>
	<polygon opacity="0.29" clip-path="url(#SVGID_2_)" fill="none" stroke="#FFFFFF" stroke-miterlimit="10" points="246.67,415.549 
		306.101,440.504 246.669,506.23 187.238,440.504 	"/>
	<ellipse opacity="0.29" clip-path="url(#SVGID_2_)" fill="#FFFFFF" cx="1087.355" cy="468.78" rx="1.453" ry="1.469"/>
	<ellipse opacity="0.29" clip-path="url(#SVGID_2_)" fill="#FFFFFF" cx="1181.383" cy="468.78" rx="1.453" ry="1.469"/>
	<polygon opacity="0.29" clip-path="url(#SVGID_2_)" fill="none" stroke="#FFFFFF" stroke-miterlimit="10" points="365.537,415.104 
		424.968,440.059 365.537,505.787 306.105,440.059 	"/>
	<polygon opacity="0.29" clip-path="url(#SVGID_2_)" fill="none" stroke="#FFFFFF" stroke-miterlimit="10" points="1206.073,250.2 
		1236.301,178.211 1315.918,250.2 1236.301,322.189 	"/>
	<polygon opacity="0.29" clip-path="url(#SVGID_2_)" fill="none" stroke="#FFFFFF" stroke-miterlimit="10" points="
		1236.813,322.192 1267.042,250.204 1346.656,322.193 1267.042,394.183 	"/>
	<polygon opacity="0.29" clip-path="url(#SVGID_2_)" fill="none" stroke="#FFFFFF" stroke-miterlimit="10" points="
		1236.274,178.208 1266.502,106.22 1346.119,178.208 1266.502,250.198 	"/>
</g>
</svg>
